<?xml version="1.0" standalone="no"?>
<!DOCTYPE svg PUBLIC "-//W3C//DTD SVG 20010904//EN"
 "http://www.w3.org/TR/2001/REC-SVG-20010904/DTD/svg10.dtd">
<svg version="1.0" xmlns="http://www.w3.org/2000/svg"
 width="1860.000000pt" height="1662.000000pt" viewBox="0 0 1860.000000 1662.000000"
 preserveAspectRatio="xMidYMid meet">
<metadata>
Created by potrace 1.15, written by Peter Selinger 2001-2017
</metadata>
<g transform="translate(0.000000,1662.000000) scale(0.100000,-0.100000)"
fill="#2a61d9" stroke="none">
<path d="M11210 13823 c-8 -3 -31 -13 -50 -22 -22 -11 -62 -18 -105 -20 -98
-2 -178 -12 -192 -23 -7 -6 -27 -8 -45 -6 -24 4 -49 -4 -95 -28 -34 -19 -75
-34 -91 -34 -16 0 -35 -7 -42 -15 -7 -8 -20 -15 -29 -15 -9 0 -47 -16 -86 -35
-38 -19 -77 -35 -87 -35 -19 0 -90 -70 -198 -194 -41 -48 -90 -97 -110 -110
-19 -13 -66 -54 -105 -90 -38 -36 -94 -80 -123 -98 -29 -18 -77 -50 -105 -71
-57 -42 -122 -74 -237 -117 -62 -22 -84 -26 -127 -20 -29 3 -61 14 -71 23 -10
9 -31 17 -46 17 -18 0 -50 19 -97 56 -38 31 -69 60 -69 64 0 4 -12 10 -27 14
-17 3 -43 25 -67 56 -22 28 -47 50 -58 50 -10 0 -45 17 -76 37 -31 21 -65 41
-75 45 -10 4 -38 21 -62 38 -24 16 -47 30 -51 30 -4 0 -39 15 -78 33 -39 19
-104 39 -146 46 -41 7 -111 19 -155 27 -126 24 -275 28 -305 10 -54 -33 -107
-53 -158 -60 -30 -4 -72 -18 -94 -33 -23 -14 -71 -33 -107 -44 -36 -10 -93
-33 -127 -51 -58 -32 -124 -94 -124 -117 0 -6 -12 -14 -27 -17 -16 -4 -50 -30
-76 -58 -41 -43 -47 -56 -45 -86 3 -32 6 -35 47 -42 64 -11 69 -21 32 -64 -46
-52 -28 -64 46 -32 89 39 155 51 242 44 42 -3 103 -8 136 -11 135 -9 267 -25
285 -35 10 -5 36 -10 57 -10 41 0 59 -4 197 -44 99 -28 268 -107 306 -142 14
-13 41 -30 61 -38 19 -8 41 -22 48 -30 13 -15 61 -40 136 -71 22 -9 49 -24 60
-34 11 -10 41 -26 67 -36 26 -10 53 -24 59 -31 6 -8 22 -14 35 -14 14 0 32 -4
42 -9 37 -20 206 -41 242 -31 19 6 51 10 71 10 19 0 44 7 55 15 10 8 29 15 40
15 12 0 33 9 47 20 14 11 40 20 59 21 21 0 55 15 93 39 33 22 75 46 93 55 19
8 47 26 64 40 16 14 42 28 56 31 15 4 45 17 68 30 22 13 50 24 62 24 12 0 31
10 44 23 30 29 131 97 146 97 6 0 26 13 44 28 18 16 54 36 80 46 26 10 50 22
54 27 9 14 84 51 116 56 16 2 54 16 86 30 37 17 78 27 115 28 31 1 65 8 75 16
37 30 64 39 115 39 30 0 61 6 73 15 15 10 51 15 115 16 52 1 108 5 124 10 17
5 50 11 75 13 71 7 144 23 183 42 34 16 38 16 55 1 24 -22 26 -22 62 13 17 17
39 30 48 30 10 0 27 7 39 15 12 8 50 18 84 22 67 7 139 44 139 72 0 21 -32 69
-59 88 -33 22 -25 67 12 71 32 4 33 6 7 39 -11 14 -20 36 -20 49 0 14 -9 28
-24 36 -48 27 -112 74 -159 116 -33 30 -53 41 -66 37 -12 -3 -30 4 -49 20 -20
17 -42 25 -68 25 -37 0 -95 16 -121 33 -7 4 -24 5 -38 1 -19 -5 -35 0 -55 15
-29 21 -42 24 -70 14z"/>
<path d="M14931 11499 c-14 -6 -68 -9 -120 -7 -97 2 -204 -16 -280 -48 -18 -8
-54 -17 -80 -21 -25 -3 -55 -13 -66 -23 -26 -23 -84 -50 -105 -50 -21 0 -150
-101 -203 -159 -20 -23 -44 -41 -52 -41 -7 0 -22 -14 -32 -31 -10 -17 -31 -37
-48 -45 -16 -8 -59 -41 -95 -74 -36 -33 -74 -68 -85 -78 -11 -10 -32 -32 -47
-48 -48 -51 -101 -99 -173 -157 -38 -30 -85 -71 -104 -91 -50 -51 -141 -80
-237 -74 -44 3 -83 11 -98 21 -14 10 -32 17 -40 17 -14 0 -86 37 -96 50 -3 4
-41 34 -86 68 -45 34 -87 68 -94 77 -7 8 -29 24 -49 36 -20 11 -49 37 -65 58
-19 27 -34 37 -46 34 -12 -3 -32 8 -56 31 -20 20 -41 36 -45 36 -14 0 -171
122 -176 137 -3 7 -19 13 -35 13 -25 0 -216 91 -253 120 -10 8 -40 20 -210 81
-44 16 -107 34 -140 40 -33 6 -82 15 -110 20 -117 21 -137 21 -213 4 -42 -9
-105 -30 -140 -46 -34 -16 -67 -29 -74 -29 -6 0 -35 -18 -64 -40 -33 -25 -76
-46 -116 -56 -35 -10 -70 -23 -79 -31 -8 -7 -26 -13 -39 -13 -23 0 -148 -116
-184 -172 -17 -26 -17 -30 -2 -53 12 -18 25 -25 50 -25 18 0 39 -7 46 -15 11
-13 8 -20 -15 -45 -17 -18 -25 -35 -21 -45 3 -9 11 -13 16 -10 33 20 132 23
214 5 98 -22 151 -46 188 -88 17 -19 46 -36 81 -46 30 -9 60 -23 67 -31 7 -8
17 -15 22 -15 5 0 28 -9 50 -20 23 -11 47 -20 52 -20 6 0 34 -11 61 -25 28
-13 59 -25 70 -25 11 0 31 -7 45 -15 14 -8 36 -15 50 -15 36 -1 91 -22 124
-47 16 -13 36 -23 45 -23 10 0 36 -9 59 -20 23 -11 55 -23 72 -26 16 -4 35
-13 41 -20 6 -8 24 -14 39 -14 15 0 44 -13 65 -30 23 -18 50 -30 67 -30 25 0
106 -28 213 -74 17 -7 46 -17 65 -21 19 -4 56 -18 82 -30 25 -12 59 -26 75
-29 15 -4 49 -21 74 -37 35 -22 53 -28 76 -23 20 4 46 -1 78 -15 26 -12 57
-21 69 -21 12 0 32 -7 45 -16 18 -13 30 -14 64 -6 23 6 98 13 167 17 147 6
171 10 229 36 24 10 49 19 55 19 6 0 43 15 81 34 39 18 81 37 95 41 14 4 34
14 45 21 11 8 29 14 41 14 11 0 29 9 39 20 10 11 47 35 82 52 35 17 70 38 76
47 14 19 73 61 84 61 5 0 24 13 43 29 19 15 49 31 66 35 17 4 37 17 43 29 7
12 31 35 54 52 110 77 137 95 148 95 6 0 29 16 50 35 22 19 45 35 52 35 8 0
22 9 33 21 10 12 37 30 59 42 22 11 54 30 71 43 17 13 44 24 61 24 20 0 38 9
56 30 15 17 36 30 46 30 11 0 22 4 26 10 3 5 20 14 38 19 18 5 57 19 87 30 30
12 71 21 92 21 20 0 49 5 65 11 15 6 69 13 118 15 180 9 221 12 280 22 33 6
93 11 133 11 71 1 72 1 72 27 0 25 -3 26 -34 21 -22 -3 -41 0 -55 10 -12 8
-59 25 -104 37 -109 30 -146 53 -115 72 15 10 163 26 248 28 49 1 65 5 67 16
3 16 -54 60 -78 60 -8 0 -33 11 -56 24 -48 28 -199 81 -258 91 -22 4 -45 11
-52 17 -15 12 -76 29 -119 33 -17 2 -40 7 -50 13 -11 6 -40 8 -65 5 -25 -3
-55 -1 -65 5 -12 6 -28 6 -43 1z"/>
<path d="M7448 11275 c-2 -2 -60 -5 -131 -8 -70 -2 -133 -9 -140 -14 -16 -13
-55 -27 -147 -53 -90 -27 -293 -124 -326 -157 -13 -13 -28 -23 -33 -23 -13 0
-106 -57 -165 -100 -114 -85 -250 -192 -260 -204 -17 -19 -106 -88 -142 -111
-18 -11 -63 -41 -101 -66 -87 -60 -102 -67 -198 -103 -72 -26 -95 -30 -219
-33 -109 -3 -147 -1 -178 11 -21 9 -54 16 -72 16 -19 0 -47 7 -62 15 -16 8
-36 15 -45 15 -8 0 -24 7 -35 15 -10 8 -25 15 -32 15 -20 0 -103 39 -137 64
-16 12 -49 28 -72 36 -23 7 -51 21 -61 30 -10 9 -30 20 -46 24 -50 12 -157 69
-176 93 -10 13 -27 23 -39 23 -21 0 -173 76 -272 136 -31 19 -63 34 -71 34 -7
0 -21 9 -31 20 -9 11 -29 20 -45 20 -16 0 -49 13 -73 30 -24 16 -53 30 -65 30
-12 0 -36 10 -55 23 -42 28 -182 87 -207 87 -9 0 -28 7 -41 17 -13 9 -40 16
-60 15 -20 -1 -76 11 -126 27 -97 31 -223 40 -287 20 -18 -6 -76 -15 -128 -20
-154 -14 -190 -24 -285 -74 -111 -58 -117 -64 -151 -130 -30 -61 -27 -82 13
-87 24 -3 30 -10 44 -52 l15 -50 81 0 c57 -1 86 -6 99 -16 11 -9 35 -23 54
-33 19 -9 42 -21 50 -26 8 -5 32 -16 53 -25 20 -8 37 -21 37 -28 0 -13 79 -88
93 -88 4 0 47 -30 95 -67 83 -63 330 -193 368 -193 9 0 28 -8 42 -19 15 -10
38 -22 52 -25 28 -8 77 -29 132 -57 20 -11 46 -19 57 -19 11 0 22 -4 26 -9 3
-5 29 -17 58 -26 28 -10 72 -28 96 -41 24 -13 50 -24 58 -24 8 0 38 -11 66
-24 29 -13 63 -26 77 -29 37 -9 202 -66 222 -77 10 -6 27 -10 38 -10 10 0 34
-6 52 -14 18 -8 69 -22 113 -31 44 -10 92 -26 107 -36 30 -21 59 -24 74 -9 8
8 19 7 39 0 37 -14 360 -15 453 -1 41 6 119 26 175 45 56 19 118 37 137 41 19
4 53 16 74 26 22 11 46 19 53 19 14 0 220 105 243 124 14 12 121 72 185 104
17 9 44 27 61 41 17 14 60 44 95 66 34 22 70 45 79 50 8 6 29 19 45 31 17 11
50 29 75 38 25 10 52 23 60 30 22 19 75 43 112 52 18 3 49 17 68 30 21 15 49
24 72 24 24 0 46 8 66 25 17 14 37 25 45 25 8 0 34 7 58 15 24 9 60 16 79 16
19 1 58 7 85 16 28 8 64 19 82 24 17 5 48 10 70 10 21 0 164 3 318 5 189 3
286 1 300 -6 13 -7 41 -8 80 -3 33 5 83 7 110 6 355 -17 427 -25 511 -55 72
-25 104 -23 104 7 0 14 -75 55 -101 55 -8 0 -23 6 -34 13 -11 7 -47 23 -80 36
-88 34 -123 50 -127 59 -2 4 -25 17 -53 29 -27 12 -51 26 -53 31 -5 16 74 25
110 13 18 -6 47 -10 63 -9 17 1 70 -6 119 -15 119 -22 138 -11 64 39 -24 15
-54 38 -68 50 -28 26 -158 94 -178 94 -8 0 -27 9 -42 20 -17 12 -56 24 -97 29
-37 5 -85 16 -106 24 -20 9 -56 19 -80 22 -23 4 -61 13 -84 20 -23 8 -57 14
-76 13 -19 -1 -39 2 -46 6 -6 4 -46 9 -88 12 -41 2 -94 9 -117 15 -22 7 -50
11 -61 11 -11 -1 -34 3 -52 9 -27 9 -297 21 -305 14z"/>
<path d="M7265 9728 c-22 -6 -51 -16 -65 -23 -14 -7 -50 -15 -81 -18 -57 -5
-139 -39 -139 -57 0 -6 -20 -29 -44 -53 l-43 -42 5 -87 c4 -82 6 -87 35 -108
23 -17 44 -23 86 -23 40 0 63 -5 83 -20 14 -11 34 -17 42 -14 11 5 24 -5 41
-31 17 -26 46 -48 90 -71 46 -22 65 -37 65 -51 0 -11 12 -25 27 -32 14 -7 35
-30 46 -51 11 -21 27 -41 36 -45 9 -3 29 -16 44 -29 16 -13 37 -23 46 -23 10
0 30 -9 43 -20 14 -11 90 -44 169 -75 79 -30 162 -64 184 -75 22 -11 44 -20
48 -20 5 0 20 -9 34 -20 14 -11 34 -20 44 -20 11 0 19 -3 19 -8 0 -4 17 -16
38 -27 20 -11 56 -36 79 -57 24 -21 48 -38 54 -38 6 0 27 -13 46 -30 18 -16
38 -30 42 -30 5 0 12 -11 15 -24 4 -17 22 -32 61 -50 30 -15 76 -46 103 -71
27 -25 71 -56 98 -71 27 -14 51 -29 54 -33 8 -12 151 -121 159 -121 3 0 25
-18 49 -40 24 -22 46 -40 49 -40 6 0 45 -17 123 -54 19 -9 57 -30 83 -46 26
-17 76 -37 110 -45 86 -21 271 -34 316 -23 27 7 48 5 81 -6 41 -14 45 -14 74
7 17 12 37 28 45 35 8 8 25 12 40 9 21 -5 35 3 69 37 24 24 60 48 82 55 22 6
44 20 50 30 5 10 26 22 45 25 20 4 39 14 42 22 3 7 15 14 28 14 12 0 30 9 40
20 11 12 31 20 51 20 22 0 35 6 39 18 5 15 83 72 99 72 3 0 31 20 62 45 30 25
63 45 74 45 30 0 69 21 75 42 7 20 65 68 84 68 7 0 53 36 103 80 70 62 100 82
129 86 28 5 48 17 71 43 46 52 96 80 144 81 33 0 45 5 58 25 13 20 25 25 56
25 31 0 48 7 77 33 45 40 59 45 178 62 50 7 108 20 130 28 22 9 70 16 108 17
63 0 67 1 67 23 0 13 -10 34 -22 45 -33 31 -92 84 -118 105 l-22 19 21 22 c25
27 28 92 6 122 -8 10 -15 26 -15 35 0 23 -57 109 -77 116 -10 4 -29 17 -43 31
-31 30 -93 62 -121 62 -12 0 -37 10 -57 22 -32 20 -47 21 -216 21 -159 -1
-188 -3 -236 -22 -30 -11 -66 -21 -78 -21 -13 0 -35 -9 -48 -19 -14 -11 -57
-30 -97 -42 -40 -12 -83 -30 -96 -40 -13 -11 -27 -19 -32 -19 -5 0 -30 -13
-56 -30 -26 -16 -54 -30 -63 -30 -9 0 -29 -14 -45 -30 -16 -17 -49 -40 -73
-52 -25 -12 -59 -33 -76 -48 -17 -15 -51 -40 -76 -55 -25 -15 -57 -40 -73 -55
-15 -15 -42 -35 -60 -43 -18 -9 -43 -27 -56 -41 -14 -14 -28 -26 -32 -26 -12
0 -110 -62 -135 -86 -13 -11 -40 -29 -61 -40 -21 -10 -49 -27 -62 -36 -13 -10
-38 -18 -56 -18 -18 0 -38 -7 -45 -16 -26 -30 -50 -37 -70 -19 -14 13 -28 15
-59 10 -29 -5 -46 -2 -63 9 -12 9 -29 16 -38 16 -8 0 -20 8 -27 19 -6 10 -26
21 -43 25 -19 3 -48 22 -69 45 -20 21 -57 53 -83 70 -27 18 -48 36 -48 41 0 4
-20 18 -44 29 -23 12 -63 40 -87 63 -24 22 -80 66 -124 96 -95 65 -133 94
-184 143 -30 29 -44 36 -64 32 -20 -4 -36 3 -62 26 -20 17 -43 31 -52 31 -18
0 -79 26 -156 65 -26 14 -51 25 -57 25 -5 0 -36 13 -68 28 -32 16 -92 39 -133
52 -41 13 -80 28 -87 33 -11 9 -103 31 -237 58 -132 26 -362 41 -420 27z"/>
<path d="M3283 8266 c-40 -6 -78 -17 -85 -23 -6 -7 -36 -13 -65 -13 -96 0
-148 -17 -198 -66 -25 -24 -58 -46 -73 -50 -46 -9 -65 -20 -127 -73 -32 -28
-65 -51 -72 -51 -24 0 -138 -111 -146 -143 -5 -18 -17 -41 -26 -52 -10 -11
-21 -26 -26 -33 -9 -17 32 -62 56 -62 28 0 44 -27 31 -54 -17 -38 0 -53 42
-38 20 8 45 10 57 7 15 -5 29 1 51 22 27 25 37 28 115 32 47 2 95 -1 107 -7
11 -6 48 -13 81 -16 47 -5 64 -12 80 -30 16 -20 39 -27 120 -41 55 -9 101 -18
103 -20 2 -1 19 1 38 5 20 5 48 4 62 0 15 -5 104 -11 197 -13 96 -2 179 -9
191 -15 11 -6 40 -13 64 -16 106 -13 137 -20 175 -38 22 -11 67 -29 100 -40
33 -11 69 -28 80 -38 11 -10 36 -25 55 -34 64 -29 105 -57 137 -94 26 -29 35
-34 45 -24 21 21 47 13 87 -28 21 -22 43 -40 48 -40 5 0 23 -13 39 -30 16 -16
40 -30 53 -30 14 0 34 -8 45 -18 12 -10 48 -26 81 -36 33 -10 75 -24 93 -32
18 -8 48 -14 66 -14 19 0 51 -8 72 -17 50 -21 282 -21 359 1 27 8 91 17 140
21 50 4 98 11 108 17 10 5 44 16 75 24 31 8 66 21 77 28 11 8 41 17 65 21 25
4 95 27 155 51 61 24 121 44 133 44 12 0 44 11 72 25 27 14 73 36 100 50 28
14 61 25 74 25 12 0 35 11 50 25 15 14 31 25 35 25 5 0 37 14 72 31 34 17 81
34 103 37 23 3 58 16 78 29 21 12 46 23 57 23 10 0 36 7 57 16 22 9 50 13 67
10 16 -3 38 -1 50 6 33 17 226 18 259 1 24 -11 31 -11 50 1 18 11 36 12 88 4
83 -12 256 -2 284 18 11 8 41 14 66 14 37 0 52 5 70 25 22 23 23 27 8 41 -9 9
-42 25 -75 36 -142 46 -159 64 -102 112 22 18 42 26 70 26 62 0 61 23 -2 78
-29 26 -72 59 -96 74 -24 15 -43 32 -43 37 0 5 -15 16 -34 25 -19 9 -44 28
-55 42 -14 18 -33 27 -63 31 -24 3 -83 19 -133 35 -134 45 -319 67 -480 58
-150 -9 -181 -17 -232 -59 -22 -18 -49 -31 -65 -31 -16 0 -41 -12 -61 -30 -19
-16 -39 -30 -45 -30 -6 0 -17 -6 -24 -13 -7 -7 -31 -26 -52 -42 -53 -40 -125
-118 -154 -166 -13 -21 -27 -39 -33 -39 -5 0 -15 -11 -21 -25 -16 -36 -94 -85
-134 -85 -21 0 -41 -8 -54 -22 -15 -17 -37 -23 -97 -29 -43 -4 -109 -13 -148
-19 -38 -6 -97 -9 -130 -6 -87 8 -84 8 -156 0 -51 -5 -72 -3 -97 10 -17 9 -41
16 -54 16 -40 0 -206 90 -289 158 -23 17 -46 32 -52 32 -6 0 -25 13 -42 29
-16 16 -70 55 -120 85 -49 31 -95 60 -102 66 -7 5 -35 19 -62 30 -28 11 -68
30 -88 43 -34 21 -80 40 -198 83 -22 9 -58 24 -81 35 -22 10 -53 19 -68 19
-15 0 -67 11 -116 25 -49 14 -101 25 -115 25 -15 0 -36 5 -47 11 -11 6 -75 13
-142 15 -156 5 -273 12 -311 17 -16 3 -62 0 -102 -7z"/>
<path d="M3800 6120 c-30 -4 -75 -13 -100 -20 -25 -7 -83 -13 -130 -14 -113
-3 -334 -24 -388 -38 -43 -11 -102 -60 -102 -84 0 -6 -7 -17 -16 -25 -12 -10
-20 -10 -35 -1 -28 18 -35 15 -58 -23 -14 -24 -28 -35 -43 -35 -13 0 -28 -4
-34 -8 -12 -7 -13 -15 -33 -222 -7 -69 -18 -159 -26 -200 -8 -41 -19 -139 -25
-218 -6 -78 -18 -164 -25 -190 -8 -26 -15 -66 -15 -89 0 -23 -6 -72 -14 -110
-8 -37 -20 -129 -26 -203 -7 -74 -14 -138 -16 -141 -1 -3 -10 -64 -18 -135 -8
-72 -22 -145 -29 -164 -8 -19 -20 -80 -26 -135 -7 -55 -23 -147 -36 -205 -50
-218 -51 -240 -13 -315 33 -65 60 -79 158 -83 75 -3 88 -1 113 18 15 12 37 41
47 64 23 48 70 191 70 210 0 8 9 33 20 57 11 24 20 56 20 71 0 16 8 54 19 85
10 32 23 90 29 128 6 39 16 99 21 135 6 36 14 97 18 135 l8 70 87 3 c61 2 98
-2 124 -13 56 -23 229 -20 335 6 99 24 181 55 228 86 19 13 37 23 42 23 4 0
17 20 29 44 18 37 19 49 9 68 -21 42 -43 59 -114 92 -38 18 -76 40 -84 49 -7
9 -18 17 -24 17 -5 0 -30 10 -54 22 -40 20 -48 21 -101 10 -32 -7 -85 -12
-118 -12 -78 0 -226 26 -236 42 -9 16 1 136 14 162 6 10 7 46 3 81 -4 41 -3
65 4 70 6 3 11 34 11 68 1 107 25 246 46 267 17 16 62 36 209 90 52 19 175 41
210 37 11 -1 70 2 130 6 61 4 147 4 193 -1 78 -7 86 -6 118 16 20 13 57 31 82
40 81 27 117 58 157 134 24 45 24 48 7 77 -9 16 -26 35 -37 41 -11 6 -38 24
-60 40 -33 24 -50 29 -98 30 -33 0 -83 -7 -113 -16 -54 -15 -54 -15 -89 12
-19 14 -35 30 -35 34 0 12 -97 70 -116 69 -11 -1 -44 -5 -74 -9z"/>
<path d="M11230 5950 c-8 -6 -35 -15 -59 -22 -38 -10 -110 -59 -170 -116 -10
-9 -55 -50 -100 -91 -45 -41 -108 -101 -139 -134 -54 -57 -111 -100 -159 -122
-40 -18 -153 -118 -334 -295 -98 -96 -206 -201 -239 -233 -71 -69 -92 -70 -90
-5 3 66 3 66 -40 93 -39 24 -76 77 -66 94 3 5 11 53 17 107 6 55 20 121 30
147 11 26 19 62 19 78 0 42 -50 88 -107 98 -23 5 -49 13 -56 19 -7 6 -39 14
-71 18 -49 6 -61 4 -86 -15 -16 -11 -32 -21 -36 -21 -3 0 -19 -11 -36 -25 -16
-14 -35 -25 -41 -25 -7 -1 -25 -12 -42 -25 l-30 -25 -3 -132 c-2 -73 -7 -137
-12 -143 -4 -5 -10 -52 -14 -103 -4 -50 -16 -140 -26 -199 -11 -59 -20 -133
-20 -165 0 -33 -6 -71 -14 -86 -7 -15 -19 -58 -25 -97 -7 -38 -18 -92 -26
-120 -30 -108 -40 -175 -41 -290 0 -66 -6 -147 -13 -180 -7 -33 -23 -109 -35
-170 -29 -137 -31 -177 -10 -231 13 -34 24 -46 51 -55 54 -17 158 -8 185 18
13 11 47 33 75 48 29 15 59 37 65 50 98 180 170 351 228 542 29 95 36 107 94
168 35 37 70 65 81 65 13 0 70 52 152 138 148 154 150 155 172 52 12 -56 43
-304 43 -350 1 -14 7 -61 14 -105 8 -44 16 -116 18 -160 3 -44 10 -102 15
-130 6 -27 15 -75 20 -105 12 -75 43 -152 81 -199 46 -60 53 -60 185 -15 59
21 66 28 75 70 5 22 16 76 25 122 15 70 16 99 8 200 -6 64 -21 149 -32 187
-12 39 -29 115 -37 170 -8 55 -21 125 -29 155 -7 30 -19 96 -25 145 -22 160
-50 284 -77 340 l-27 54 34 43 c56 69 173 188 186 188 7 0 36 19 65 43 29 23
77 61 106 83 226 173 343 304 343 383 0 12 24 41 60 72 84 73 110 129 73 161
-22 18 -97 48 -121 48 -9 0 -24 -5 -32 -10z"/>
<path d="M12145 5709 c-52 -13 -64 -23 -105 -93 -25 -42 -45 -63 -70 -73 -42
-18 -80 -51 -80 -70 0 -14 -37 -102 -65 -153 -7 -14 -16 -43 -20 -65 -4 -22
-13 -47 -20 -55 -28 -35 -58 -99 -85 -179 -16 -47 -35 -99 -44 -116 -9 -16
-16 -38 -16 -48 0 -17 -35 -109 -66 -172 -33 -68 -85 -211 -90 -249 -4 -23
-17 -66 -29 -96 -47 -114 -40 -242 16 -309 20 -24 88 -44 155 -44 43 -1 113
46 154 102 19 26 61 69 94 96 86 72 124 114 137 152 6 18 14 33 18 33 4 0 25
37 45 83 21 45 43 91 49 102 59 104 67 140 45 201 -9 26 -8 43 7 91 10 32 24
65 31 74 8 8 14 20 14 25 0 5 10 27 21 49 12 21 34 71 50 110 15 39 35 84 43
100 9 17 16 36 16 43 0 15 44 125 65 164 8 14 15 47 15 72 0 40 -4 48 -25 58
-13 6 -48 44 -76 85 -64 93 -88 104 -184 82z"/>
<path d="M13235 5679 c-22 -10 -43 -20 -48 -21 -4 -2 -14 -26 -22 -53 -32
-113 -58 -176 -76 -185 -10 -6 -19 -15 -19 -20 0 -4 -24 -59 -54 -122 -30 -62
-57 -131 -61 -153 -4 -22 -16 -62 -27 -88 -10 -28 -21 -87 -24 -140 -5 -88
-44 -309 -63 -359 -4 -12 -12 -59 -15 -103 -4 -44 -12 -100 -18 -125 -14 -60
-43 -200 -58 -275 -6 -33 -18 -90 -25 -127 -28 -131 -39 -293 -25 -353 20 -84
39 -109 96 -124 90 -23 102 -23 156 -3 47 17 71 19 213 14 133 -4 167 -2 199
12 23 9 67 16 110 16 204 1 378 68 416 160 12 28 10 32 -23 69 -25 28 -34 46
-30 60 3 12 9 21 13 21 11 0 40 76 40 105 0 40 -54 92 -115 109 -29 9 -65 16
-79 16 -29 0 -152 -32 -182 -48 -38 -19 -144 -36 -156 -24 -12 12 4 64 29 93
22 26 35 79 37 149 2 63 12 116 43 212 8 25 17 82 20 125 3 43 11 89 18 103
12 24 23 135 30 290 2 41 8 87 13 101 6 14 16 98 22 185 6 87 18 179 26 203
16 52 19 117 4 126 -6 4 -17 22 -25 41 -11 27 -26 40 -62 55 -26 11 -57 24
-68 29 -52 24 -132 50 -150 49 -11 0 -38 -9 -60 -20z"/>
<path d="M7862 5546 c-51 -13 -103 -28 -115 -34 -12 -6 -42 -19 -68 -30 -87
-37 -147 -113 -178 -227 -6 -22 -18 -49 -26 -59 -8 -11 -15 -35 -15 -53 0 -18
-18 -86 -39 -150 -22 -65 -43 -136 -47 -158 -4 -22 -13 -49 -20 -60 -8 -11
-14 -26 -14 -35 0 -8 -7 -28 -16 -45 -17 -32 -45 -108 -71 -190 -8 -27 -21
-57 -28 -65 -7 -8 -16 -29 -20 -47 -3 -17 -13 -37 -21 -44 -8 -6 -14 -17 -14
-23 0 -31 -127 -449 -175 -576 -18 -47 -36 -101 -40 -120 -4 -19 -13 -46 -20
-60 -7 -14 -16 -47 -19 -73 -4 -26 -14 -63 -22 -82 -16 -40 -19 -106 -3 -122
5 -5 18 -25 27 -43 21 -40 73 -70 124 -70 30 0 45 -8 77 -40 34 -35 45 -40 83
-40 24 0 68 6 98 14 30 7 73 17 94 21 22 3 56 15 75 25 66 33 131 60 148 60
22 0 171 48 218 71 22 10 49 19 60 19 22 0 95 67 95 87 0 6 -11 30 -25 54 -20
37 -39 52 -116 93 l-93 48 -108 0 c-99 0 -109 1 -123 21 -20 29 -20 120 0 137
18 15 16 51 -2 57 -6 3 -26 -10 -44 -26 -61 -58 -86 -32 -53 54 9 22 19 58 24
80 4 22 17 63 27 90 l19 50 77 6 c42 4 83 12 91 18 13 11 92 41 166 62 122 36
216 118 214 188 -2 40 -33 94 -76 129 l-27 23 -40 -21 c-22 -11 -47 -20 -56
-20 -8 0 -41 -9 -72 -20 -87 -30 -153 -24 -126 13 5 7 22 46 37 87 16 41 37
93 47 116 10 23 19 49 19 59 0 33 42 140 63 158 10 9 31 17 46 17 14 0 38 6
52 14 14 7 43 16 63 20 50 9 104 37 201 103 17 11 41 23 55 26 30 9 100 96
100 126 0 24 -37 66 -67 75 -51 16 -9 76 68 96 41 11 79 51 79 82 0 32 -27 73
-57 87 -151 69 -334 86 -491 47z"/>
<path d="M5404 5348 l-40 -43 2 -80 c1 -44 5 -190 8 -325 8 -294 22 -520 37
-575 7 -25 9 -84 5 -160 -4 -69 -2 -163 4 -220 7 -55 12 -217 14 -360 2 -251
3 -262 26 -310 25 -54 74 -105 100 -105 8 0 43 -9 75 -21 l60 -21 135 69 c113
57 146 79 205 138 91 91 180 192 222 255 18 28 38 50 43 50 5 0 12 10 16 23 3
12 21 40 39 62 18 22 40 56 50 75 10 19 33 57 52 84 18 26 54 92 79 145 25 53
62 115 81 139 20 24 39 62 44 85 14 62 48 137 81 180 17 21 49 66 73 101 39
58 42 69 48 146 3 46 2 93 -3 104 -10 28 -138 79 -175 70 -37 -9 -83 -57 -180
-186 -27 -36 -46 -50 -78 -59 -51 -15 -83 -46 -118 -114 -48 -95 -91 -170
-105 -186 -8 -8 -14 -19 -14 -23 0 -9 -67 -100 -147 -199 -35 -44 -63 -85 -63
-93 0 -7 -14 -21 -31 -29 l-30 -16 8 38 c13 61 6 408 -8 435 -7 13 -18 50 -25
83 -29 144 -84 314 -114 352 -11 14 -20 36 -20 49 0 13 -6 38 -14 56 -8 18
-26 69 -40 112 -14 44 -37 96 -52 117 -14 21 -28 55 -31 76 -6 42 -38 70 -110
97 -21 7 -45 16 -53 20 -10 4 -29 -8 -56 -36z"/>
<path d="M14910 5336 c-54 -39 -61 -53 -94 -176 -14 -52 -41 -144 -61 -204
-19 -60 -35 -118 -35 -128 0 -10 -7 -35 -16 -56 -9 -20 -22 -64 -29 -97 -7
-33 -25 -91 -40 -130 -14 -38 -32 -92 -40 -118 -7 -26 -18 -53 -23 -60 -5 -7
-12 -32 -16 -56 -4 -24 -13 -56 -21 -71 -8 -15 -23 -57 -34 -92 -11 -34 -40
-128 -65 -208 -24 -80 -50 -172 -56 -205 -6 -33 -16 -76 -21 -96 -15 -58 -11
-182 6 -205 8 -10 15 -28 15 -39 0 -11 14 -40 30 -64 17 -24 30 -49 30 -54 0
-22 51 -117 68 -125 19 -10 294 1 432 17 47 6 191 15 320 22 129 6 238 13 241
15 3 2 60 8 125 15 65 6 124 15 130 20 19 16 5 44 -48 101 -28 29 -61 69 -73
89 -13 20 -37 47 -55 60 -17 13 -42 34 -57 47 -14 12 -31 22 -38 22 -7 0 -24
9 -38 20 -35 28 -211 80 -267 79 -60 -1 -192 19 -204 31 -6 6 -6 27 1 57 22
92 45 167 58 187 7 12 16 41 19 65 4 24 15 70 26 102 28 82 26 130 -6 168 -26
31 -26 32 -15 116 7 47 23 125 37 173 14 48 32 125 40 172 34 193 65 359 79
430 20 101 20 105 -17 138 -25 24 -43 31 -95 37 -36 4 -80 13 -99 21 -43 18
-41 18 -94 -20z"/>
<path d="M4438 5020 c-60 -38 -90 -76 -115 -140 -25 -66 -58 -176 -73 -245 -6
-27 -18 -69 -26 -93 -7 -23 -14 -68 -14 -100 0 -31 -5 -86 -11 -122 -6 -36
-12 -92 -13 -125 -2 -38 -13 -83 -29 -122 -21 -48 -25 -72 -21 -105 3 -26 -1
-71 -11 -113 -10 -38 -19 -92 -21 -120 -2 -27 -7 -69 -10 -91 -5 -38 -3 -46
31 -83 43 -48 83 -61 150 -51 44 7 55 14 107 71 48 54 158 222 158 243 0 3 27
62 60 131 33 69 60 131 60 139 0 8 18 67 41 132 22 66 44 142 49 170 4 28 13
60 19 71 5 11 20 50 32 86 21 65 21 67 3 94 -15 22 -19 47 -19 123 0 111 -14
143 -69 158 -18 5 -59 30 -90 56 -31 25 -60 46 -64 46 -4 0 -24 4 -44 9 -32 8
-43 5 -80 -19z"/>
</g>
</svg>
