<svg id="Layer_1" xmlns="http://www.w3.org/2000/svg" viewBox="0 0 225.5 888.5"><style>.st0{fill:#fee4dd}.st1{fill:none;stroke:#761ed6;stroke-width:2.5;stroke-miterlimit:10}</style><path class="st0" d="M196.8 199.9c0 21.9-17.7 39.6-39.6 39.6-21.9 0-39.6-17.7-39.6-39.6s17.7-39.6 39.6-39.6 39.6 17.7 39.6 39.6"/><circle class="st1" cx="157.2" cy="199.9" r="39.6"/><path class="st0" d="M192.7 18.7l12.1 1.1 1.1-11.7c.1-1.6-12.6-4.1-28.4-5.6s-28.8-1.4-29 .2l-1.1 11.7 12.1 1.1-25.2 267c-.7 7.7-.6 15.5.5 23.2l32.4 234.9c4.6 33.6-2.5 68.2-20 97.2l-51.7 85.8 28.5 17.2 51.7-85.8c21.5-35.6 30.2-77.8 24.5-119l-32.4-234.9c-.7-5.1-.8-10.3-.3-15.5l25.2-266.9z"/><path class="st1" d="M192.7 18.7l12.1 1.1 1.1-11.7c.1-1.6-12.6-4.1-28.4-5.6s-28.8-1.4-29 .2l-1.1 11.7 12.1 1.1-25.2 267c-.7 7.7-.6 15.5.5 23.2l32.4 234.9c4.6 33.6-2.5 68.2-20 97.2l-51.7 85.8 28.5 17.2 51.7-85.8c21.5-35.6 30.2-77.8 24.5-119l-32.4-234.9c-.7-5.1-.8-10.3-.3-15.5l25.2-266.9z"/><path class="st0" d="M136.2 847c.7-1.6 0-3.5-1.4-4.4l-48.5-30.8 41-67.9c.9-1.5.4-3.4-1.1-4.3l-30.5-18.4c-1.5-.9-3.4-.4-4.3 1.1L43 802.6c-1.3 2.1-3.8 3-6.1 2.3-2.3-.7-4.8.2-6.1 2.3L2.3 854.4c-1.6 2.7-.8 6.2 1.9 7.8l39.9 24.1c2.7 1.6 6.2.8 7.8-1.9l28.5-47.1c1.3-2.1.9-4.8-.8-6.5-1.7-1.7-2.1-4.4-.8-6.5l2.6-4.2 49.9 28.6c1.7.9 4 .2 4.9-1.7m-74.7-34.6c-4.7-2.8-6.2-8.9-3.4-13.6 2.8-4.7 8.9-6.2 13.6-3.4 4.7 2.8 6.2 8.9 3.4 13.6-2.9 4.8-8.9 6.3-13.6 3.4m16-26.5c-4.7-2.8-6.2-8.9-3.4-13.6 2.8-4.7 8.9-6.2 13.6-3.4 4.7 2.8 6.2 8.9 3.4 13.6-2.8 4.7-8.9 6.2-13.6 3.4m16.1-26.6c-4.7-2.8-6.2-8.9-3.4-13.6 2.8-4.7 8.9-6.2 13.6-3.4 4.7 2.8 6.2 8.9 3.4 13.6-2.9 4.7-8.9 6.2-13.6 3.4"/><path class="st1" d="M136.2 847c.7-1.6 0-3.5-1.4-4.4l-48.5-30.8 41-67.9c.9-1.5.4-3.4-1.1-4.3l-30.5-18.4c-1.5-.9-3.4-.4-4.3 1.1L43 802.6c-1.3 2.1-3.8 3-6.1 2.3-2.3-.7-4.8.2-6.1 2.3L2.3 854.4c-1.6 2.7-.8 6.2 1.9 7.8l39.9 24.1c2.7 1.6 6.2.8 7.8-1.9l28.5-47.1c1.3-2.1.9-4.8-.8-6.5-1.7-1.7-2.1-4.4-.8-6.5l2.6-4.2 49.9 28.6c1.7.9 4 .2 4.9-1.7zm-74.7-34.6c-4.7-2.8-6.2-8.9-3.4-13.6 2.8-4.7 8.9-6.2 13.6-3.4 4.7 2.8 6.2 8.9 3.4 13.6-2.9 4.8-8.9 6.3-13.6 3.4zm16-26.5c-4.7-2.8-6.2-8.9-3.4-13.6 2.8-4.7 8.9-6.2 13.6-3.4 4.7 2.8 6.2 8.9 3.4 13.6-2.8 4.7-8.9 6.2-13.6 3.4zm16.1-26.6c-4.7-2.8-6.2-8.9-3.4-13.6 2.8-4.7 8.9-6.2 13.6-3.4 4.7 2.8 6.2 8.9 3.4 13.6-2.9 4.7-8.9 6.2-13.6 3.4z"/><path class="st0" d="M219.9 23.3c-.2-.9-.8-1.7-1.5-2.2 0 0-1.9-3.6-42-7.3-40.1-3.7-42.6-.6-42.6-.6-.8.4-1.5 1-1.8 1.9l-6.9 14.8-.5 72.4c0 1.5.8 2.8 2.1 3.5l17.3 9.3c.5.3 1 .4 1.5.5l21.3 2 21.3 2c.5.1 1.1 0 1.6-.2l18.7-6c1.4-.4 2.5-1.6 2.7-3.1L224 39.1l-4.1-15.8z"/><path class="st1" d="M219.9 23.3c-.2-.9-.8-1.7-1.5-2.2 0 0-1.9-3.6-42-7.3-40.1-3.7-42.6-.6-42.6-.6-.8.4-1.5 1-1.8 1.9l-6.9 14.8-.5 72.4c0 1.5.8 2.8 2.1 3.5l17.3 9.3c.5.3 1 .4 1.5.5l21.3 2 21.3 2c.5.1 1.1 0 1.6-.2l18.7-6c1.4-.4 2.5-1.6 2.7-3.1L224 39.1l-4.1-15.8z"/></svg>