<svg id="Layer_1" xmlns="http://www.w3.org/2000/svg" viewBox="0 0 38 38"><style>.st0{fill:none;stroke:#761ed6;stroke-width:2.5;stroke-linecap:round;stroke-linejoin:round;stroke-miterlimit:10}</style><g id="Layer_1_1_"><path class="st0" d="M27.4 13h-2.1c-.7-.7-1.6-1.1-2.6-1.1-2 0-3.6 1.6-3.6 3.6 0 .3 0 .6.1.8-3-.2-5.7-1.6-7.5-3.8-3.2 6.9 2.6 10.5 4.1 10.6-1.2 1-2.8 1.6-4.5 1.6-.3 0 1.5 1.6 4.7 1.6 6.7 0 10.3-5.5 10.3-10.3v-.5l1.1-2.5z"/><path class="st0" d="M19.3 36.5h-.5c-9.6 0-17.3-7.7-17.3-17.2v-.5c0-9.6 7.7-17.3 17.2-17.3h.5c9.6 0 17.3 7.7 17.3 17.2v.5c0 9.6-7.7 17.3-17.2 17.3z"/></g></svg>