<svg id="Layer_1" xmlns="http://www.w3.org/2000/svg" viewBox="0 0 46 46"><style>.st0{fill:#111}</style><path class="st0" d="M9.1 43.4c-.3 0-.5 0-.8-.1-1.1-.4-1.9-1.5-1.9-2.8v-6.6H4.2c-1.9 0-3.5-1.6-3.5-3.5V6c0-1.9 1.6-3.5 3.5-3.5h37.6c1.9 0 3.5 1.6 3.5 3.5v24.4c0 1.9-1.6 3.5-3.5 3.5H18.5L11 42.5c-.4.6-1.2.9-1.9.9zm-.4-2.8zM4.2 5.5c-.3 0-.5.2-.5.5v24.4c0 .3.2.5.5.5h3.7c.8 0 1.5.7 1.5 1.5v7.4l7.3-8.4c.3-.3.7-.5 1.1-.5h24c.3 0 .5-.2.5-.5V6c0-.3-.2-.5-.5-.5H4.2z"/><path class="st0" d="M17 14.3c-1.1 0-2-.9-2-2s.9-2 2-2 2 .9 2 2-.9 2-2 2zM29 14.3c-1.1 0-2-.9-2-2s.9-2 2-2 2 .9 2 2-.9 2-2 2zM23 26.1c-4.1 0-7.6-2.5-8.8-6.3-.3-.8.2-1.6 1-1.9s1.6.2 1.9 1c.8 2.5 3.2 4.3 6 4.3 2.7 0 5.1-1.7 6-4.3.3-.8 1.1-1.2 1.9-.9.8.3 1.2 1.1.9 1.9-1.4 3.7-5 6.2-8.9 6.2z"/></svg>