<svg id="Layer_1" xmlns="http://www.w3.org/2000/svg" viewBox="0 0 38 38"><style>.st0{fill:none;stroke:#761ed6;stroke-width:2.5;stroke-linecap:round;stroke-linejoin:round;stroke-miterlimit:10}</style><g id="Layer_1_1_"><path class="st0" d="M17.9 26.3V14M15.3 18.4h6M17.9 14c0-1.3 1.1-2.4 2.4-2.4s2.4 1.1 2.4 2.4"/><path class="st0" d="M19.3 36.5h-.5c-9.6 0-17.3-7.7-17.3-17.2v-.5c0-9.6 7.7-17.3 17.2-17.3h.5c9.6 0 17.3 7.7 17.3 17.2v.5c0 9.6-7.7 17.3-17.2 17.3z"/><g><path class="st0" d="M18.7 36.5h.5c9.6 0 17.3-7.7 17.3-17.2v-.5c0-9.6-7.7-17.3-17.2-17.3h-.5C9.2 1.5 1.5 9.2 1.5 18.7v.5c0 9.6 7.7 17.3 17.2 17.3z"/></g></g></svg>