<svg id="Layer_1" xmlns="http://www.w3.org/2000/svg" viewBox="0 0 29.6 45"><style>.st0{fill:none;stroke:#5A96FF;stroke-width:3;stroke-linecap:round;stroke-linejoin:round;stroke-miterlimit:10}</style><path class="st0" d="M10.6 29.5c-.2-.8-.2-1.6-.2-2.5 0-2.6 1.1-5.5 4.2-7.9l2.8-2.1c1.5-1.1 2-2.5 2-3.9 0-2.2-1.6-4.3-5-4.3-3.2 0-5.1 2.6-5.1 5.2 0 1.3.1 1.8.2 2.1l-7.8-.3c-.1-.7-.2-1.5-.2-2.2 0-6.6 4.9-12.1 13-12.1 9 0 13.6 5.4 13.6 11 0 4.5-2.1 7.5-5.4 10l-2.2 1.6c-2 1.5-3.3 2.9-3.3 5.4h-6.6zM14.1 33.8c2.7 0 4.9 2.2 4.9 4.9 0 2.6-2.2 4.8-4.9 4.8s-4.8-2.2-4.8-4.8c0-2.7 2.1-4.9 4.8-4.9z"/></svg>