<svg id="Layer_1" xmlns="http://www.w3.org/2000/svg" viewBox="0 0 222.2 178.1"><style>.st0,.st1{stroke:#761ed6;stroke-linecap:round;stroke-linejoin:round;stroke-miterlimit:10}.st0{stroke-width:2;fill:#fee4dd}.st1{fill:none}.st2{fill:#fee4dd}.st3{fill:#761ed6}</style><path class="st0" d="M107.6 177.1c-48.6 0-88.1-39.5-88.1-88.1S59 1 107.6 1s88.1 39.5 88.1 88.1-39.5 88-88.1 88z"/><path class="st1" d="M107.6 173.5c-46.5 0-84.4-37.9-84.4-84.4S61.1 4.7 107.6 4.7 192 42.5 192 89.1s-37.9 84.4-84.4 84.4z"/><path class="st1" d="M107.6 169.8c-44.5 0-80.7-36.2-80.7-80.7S63.1 8.3 107.6 8.3s80.7 36.2 80.7 80.7-36.2 80.8-80.7 80.8z"/><path class="st1" d="M107.6 166.1c-42.5 0-77-34.6-77-77s34.6-77 77-77 77 34.6 77 77-34.5 77-77 77z"/><path class="st1" d="M107.6 162.4c-40.5 0-73.4-32.9-73.4-73.4s32.9-73.4 73.4-73.4 73.4 33 73.4 73.5-32.9 73.3-73.4 73.3z"/><path class="st1" d="M107.6 158.8c-38.4 0-69.7-31.3-69.7-69.7s31.3-69.7 69.7-69.7 69.7 31.3 69.7 69.7-31.3 69.7-69.7 69.7z"/><path class="st1" d="M107.6 155.1c-36.4 0-66-29.6-66-66s29.6-66 66-66 66 29.6 66 66-29.6 66-66 66z"/><path class="st1" d="M107.6 151.4c-34.4 0-62.3-28-62.3-62.3s28-62.3 62.3-62.3 62.3 28 62.3 62.3-27.9 62.3-62.3 62.3z"/><path class="st1" d="M107.6 147.7c-32.4 0-58.7-26.3-58.7-58.7s26.3-58.7 58.7-58.7 58.7 26.3 58.7 58.7-26.3 58.7-58.7 58.7z"/><path class="st1" d="M107.6 144.1c-30.3 0-55-24.7-55-55s24.7-55 55-55 55 24.7 55 55-24.7 55-55 55z"/><path class="st1" d="M107.6 140.4c-28.3 0-51.3-23-51.3-51.3s23-51.3 51.3-51.3 51.3 23 51.3 51.3-23 51.3-51.3 51.3z"/><path class="st1" d="M107.6 136.7c-26.3 0-47.6-21.4-47.6-47.6s21.4-47.6 47.6-47.6 47.6 21.4 47.6 47.6-21.3 47.6-47.6 47.6z"/><path class="st1" d="M107.6 133c-24.2 0-44-19.7-44-44s19.7-44 44-44 44 19.7 44 44-19.7 44-44 44z"/><path class="st1" d="M107.6 129.4c-22.2 0-40.3-18.1-40.3-40.3s18.1-40.3 40.3-40.3 40.3 18.1 40.3 40.3-18.1 40.3-40.3 40.3z"/><path class="st1" d="M107.6 125.7c-20.2 0-36.6-16.4-36.6-36.6s16.4-36.6 36.6-36.6 36.6 16.4 36.6 36.6-16.4 36.6-36.6 36.6z"/><path class="st1" d="M107.6 122c-18.2 0-32.9-14.8-32.9-32.9s14.8-32.9 32.9-32.9 32.9 14.8 32.9 32.9-14.7 32.9-32.9 32.9z"/><path class="st0" d="M107.6 118.3c-16.1 0-29.3-13.1-29.3-29.3s13.1-29.3 29.3-29.3 29.3 13.1 29.3 29.3-13.2 29.3-29.3 29.3z"/><path class="st2" d="M2 67.6c-.6 0-1-.4-1-1V46.8c0-.6.4-1 1-1h7c4.6 0 7.5 2.4 7.5 6.4 0 1.5-.4 2.7-1.1 3.6 1.4 1.1 2.2 2.9 2.2 4.9 0 4.3-2.9 6.9-7.8 6.9H2zm7.6-5.7c.7 0 1.5-.2 1.5-1.4S10.3 59 9.6 59H7.5v2.9h2.1zm-.5-8.1c.2 0 .8 0 .8-1.1 0-1.2-.6-1.2-.8-1.2H7.5v2.3h1.6z"/><path class="st3" d="M9 46.8c4 0 6.5 2 6.5 5.4 0 1.8-.7 3.2-1.8 3.8 1.8.7 2.9 2.5 2.9 4.7 0 3.7-2.3 5.9-6.8 5.9H2V46.8h7m-2.5 8h2.6c1.1 0 1.8-.8 1.8-2.2s-.7-2.2-1.8-2.2H6.5v4.4m0 8.1h3.2c1.5 0 2.5-.9 2.5-2.4s-1-2.4-2.5-2.4H6.5v4.8M9 44.8H2c-1.1 0-2 .9-2 2v19.8c0 1.1.9 2 2 2h7.9c5.5 0 8.8-3 8.8-7.9 0-2-.7-3.8-1.9-5.1.5-1 .8-2.1.8-3.5 0-4.4-3.4-7.3-8.6-7.3zm-.5 7.7H9V52.8h-.5v-.3zm0 7.5h1.2c.5 0 .5.1.5.4 0 .3 0 .4-.5.4H8.5V60z"/><path class="st2" d="M30 76.3c-.6 0-1-.4-1-1V55.5c0-.6.4-1 1-1h4.5c.6 0 1 .4 1 1v19.8c0 .6-.4 1-1 1H30z"/><path class="st3" d="M34.5 55.5v19.8H30V55.5h4.5m0-2H30c-1.1 0-2 .9-2 2v19.8c0 1.1.9 2 2 2h4.5c1.1 0 2-.9 2-2V55.5c0-1.1-.9-2-2-2z"/><path class="st2" d="M55.2 68c-6.4 0-10.3-4.3-10.3-11.3S48.7 45.4 55 45.4h.8c5.9 0 9.8 3.2 9.8 8.1 0 .6-.4 1-1 1h-4.8c-.6 0-1-.4-1-1 0-1.8-2.1-2-3-2H55c-3.1 0-3.5 3.7-3.5 5.3 0 3.3 1.4 5.3 3.6 5.3h.9c.8 0 2.6-.2 3.1-1.7h-4.8c-.6 0-1-.4-1-1v-3.5c0-.6.4-1 1-1h10.6c.6 0 1 .4 1 1v2.6c0 5.8-3.8 9.5-9.9 9.6l-.8-.1z"/><path class="st3" d="M55.9 46.4c5.4 0 8.8 2.7 8.8 7.1h-4.8c0-1.9-1.5-3-4-3H55c-2.9 0-4.5 2.4-4.5 6.3s1.8 6.3 4.6 6.3h.9c2.6 0 4.2-1.4 4.2-3.7h-5.9v-3.5h10.6v2.6c0 5.3-3.4 8.5-8.9 8.6h-.8c-5.8 0-9.3-3.9-9.3-10.3s3.4-10.3 9.2-10.3l.8-.1m0-2H55c-6.9 0-11.2 4.7-11.2 12.3 0 7.5 4.4 12.3 11.3 12.3h.9c6.7-.1 10.9-4.3 10.9-10.6v-2.6c0-.5-.2-1-.6-1.4.2-.3.3-.6.3-1 0-5.5-4.2-9-10.7-9zm-3.1 10.1c.3-1.2.9-2.1 2.2-2.1h.8c.7 0 2 .1 2 1v.4h-3.6c-.5 0-1.1.3-1.4.7z"/><path class="st2" d="M86.2 76.8c-2.9 0-5.3-.9-6.9-2.5-1.4-1.4-2.1-3.4-2-5.8 0-.5.5-1 1-1h4.4c-3-.9-4.9-2.3-4.9-6.3 0-4.4 3.1-7.2 8.1-7.2H87c2.7 0 4.9.8 6.4 2.3 1.4 1.4 2 3.3 1.9 5.6 0 .5-.5 1-1 1h-3.7c2.7.8 5.1 2.4 5.1 6.5 0 4.5-3.2 7.3-8.4 7.3h-1.1v.1zm-2.5-9c.2.2.3.4.3.7 0 1.5.8 2.3 2.2 2.3h1.2c1.7 0 1.7-.8 1.7-1.1 0-.8-1.4-1.1-3.2-1.5-.2 0-.5-.1-.7-.1-.5-.1-1.1-.2-1.5-.3zm2.1-7.8c-1.4.1-1.4.6-1.4.8 0 .7 0 1 3 1.5l1.5.3c-.1-.2-.2-.4-.2-.6 0-.7-.1-1.2-.4-1.5s-.7-.4-1.2-.4l-1.3-.1z"/><path class="st3" d="M86.9 55.1c4.7 0 7.5 2.6 7.4 6.9h-4.7c.1-1.9-1-3-2.7-3h-1.2c-1.5.1-2.4.7-2.4 1.8 0 1.4.6 2 3.8 2.5 4 .7 7.6 1.4 7.6 6.2 0 4-2.8 6.3-7.4 6.3h-1.1c-5.1 0-8.1-2.7-7.9-7.2H83c0 2.1 1.2 3.3 3.2 3.3h1.2c1.7 0 2.7-.8 2.7-2.1 0-1.9-2.7-2.2-4.7-2.6-4.5-.9-6.6-1.8-6.6-5.9 0-3.9 2.7-6.2 7.1-6.2h1m0-2h-1.1c-5.5 0-9.1 3.2-9.1 8.2 0 2.5.8 4.2 1.9 5.3h-.4c-1.1 0-2 .9-2 1.9-.1 2.6.7 4.8 2.3 6.5 1.8 1.8 4.4 2.8 7.6 2.8h1.1c5.7 0 9.4-3.2 9.4-8.3 0-2.6-.9-4.3-2.1-5.5 1-.1 1.7-.9 1.7-1.9.1-2.5-.7-4.7-2.2-6.3-1.6-1.8-4.1-2.7-7.1-2.7zM85.8 61h1.1c.2 0 .4.1.5.1 0 0 .1.1.1.2h-.1c-.8-.1-1.3-.2-1.6-.3zm.4 8.9c-.6 0-1-.1-1.2-.8.2 0 .4.1.7.1.6.1 1.7.3 2.2.6-.1 0-.3.1-.5.1h-1.2z"/><path class="st2" d="M117.7 68c-6.5 0-10.6-4.4-10.6-11.3s4.2-11.3 10.6-11.3h.8c6.5 0 10.6 4.4 10.6 11.3S124.9 68 118.5 68h-.8zm0-16.6c-2.4 0-3.9 2-3.9 5.3s1.5 5.3 3.9 5.3h.8c2.4 0 3.9-2 3.9-5.3s-1.5-5.3-3.9-5.3h-.8z"/><path class="st3" d="M118.5 46.4c5.9 0 9.6 3.9 9.6 10.3S124.3 67 118.5 67h-.8c-5.9 0-9.6-3.9-9.6-10.3s3.8-10.3 9.6-10.3h.8m-.8 16.6h.8c2.9 0 4.9-2.4 4.9-6.3s-2-6.3-4.9-6.3h-.8c-2.9 0-4.9 2.4-4.9 6.3s2 6.3 4.9 6.3m.8-18.6h-.8c-7.1 0-11.6 4.8-11.6 12.3 0 7.5 4.5 12.3 11.6 12.3h.8c7.1 0 11.6-4.8 11.6-12.3s-4.5-12.3-11.6-12.3zm-.8 16.6c-2.7 0-2.9-3.3-2.9-4.3s.2-4.3 2.9-4.3h.8c2.7 0 2.9 3.3 2.9 4.3s-.2 4.3-2.9 4.3h-.8z"/><path class="st2" d="M150.9 76.6c-5.9 0-9.4-3.6-9.4-9.7V55.3c0-.6.4-1 1-1h4.5c.6 0 1 .4 1 1v11.2c0 1.2.3 3.9 2.9 3.9h.8c2.4 0 2.6-2.7 2.6-3.9V55.3c0-.6.4-1 1-1h4.5c.6 0 1 .4 1 1v11.5c0 6.1-3.4 9.7-9.2 9.7l-.7.1z"/><path class="st3" d="M159.9 55.3v11.5c0 5.6-3.1 8.7-8.2 8.7h-.8c-5.2 0-8.4-3.1-8.4-8.7V55.3h4.5v11.2c0 3 1.5 4.9 3.9 4.9h.8c2.3 0 3.6-1.9 3.6-4.9V55.3h4.6m0-2h-4.5c-1.1 0-2 .9-2 2v11.2c0 1.1-.2 2.9-1.6 2.9h-.8c-1.6 0-1.9-1.6-1.9-2.9V55.3c0-1.1-.9-2-2-2h-4.5c-1.1 0-2 .9-2 2v11.5c0 6.6 4 10.7 10.4 10.7h.8c6.3 0 10.2-4.1 10.2-10.7V55.3c-.1-1.1-1-2-2.1-2z"/><path class="st2" d="M185.2 67.6c-.4 0-.7-.2-.9-.5l-5.6-9.7v9.1c0 .6-.4 1-1 1h-4.4c-.6 0-1-.4-1-1V46.8c0-.6.4-1 1-1h4.5c.4 0 .7.2.9.5l5.6 9.5v-9c0-.6.4-1 1-1h4.4c.6 0 1 .4 1 1v19.8c0 .6-.4 1-1 1h-4.5z"/><path class="st3" d="M189.7 46.8v19.8h-4.5l-7.5-12.8v12.8h-4.4V46.8h4.5l7.5 12.6V46.8h4.4m0-2h-4.4c-1.1 0-2 .9-2 2v5.4l-3.8-6.4c-.4-.6-1-1-1.7-1h-4.5c-1.1 0-2 .9-2 2v19.8c0 1.1.9 2 2 2h4.4c1.1 0 2-.9 2-2v-5.5l3.8 6.5c.4.6 1 1 1.7 1h4.5c1.1 0 2-.9 2-2V46.8c0-1.1-.9-2-2-2z"/><path class="st2" d="M203 76.3c-.6 0-1-.4-1-1V55.5c0-.6.4-1 1-1h5.9c7.6 0 12.3 4.2 12.3 10.9s-4.7 10.9-12.3 10.9H203zm5.9-5.9c3.5 0 5.6-1.8 5.6-4.9 0-3.1-2-4.9-5.6-4.9h-.4v9.9l.4-.1z"/><path class="st3" d="M208.9 55.5c7 0 11.3 3.8 11.3 9.9s-4.3 9.9-11.3 9.9H203V55.5h5.9m-1.4 15.9h1.4c4.1 0 6.6-2.3 6.6-5.9 0-3.7-2.5-5.9-6.6-5.9h-1.4v11.8m1.4-17.9H203c-1.1 0-2 .9-2 2v19.8c0 1.1.9 2 2 2h5.9c8.1 0 13.3-4.7 13.3-11.9s-5.2-11.9-13.3-11.9zm.6 15.9v-7.8c1.9.1 3.9 1 3.9 3.9.1 2.9-1.9 3.7-3.9 3.9z"/><path class="st2" d="M29.9 155.4c-.2 0-.4-.1-.5-.2-.3-.2-.5-.5-.5-.8l-.1-9.8-1 .5c-.1.1-.3.1-.5.1s-.4-.1-.6-.2c-.3-.2-.5-.5-.4-.9l1.1-15.1-1.4.6c-.1.1-.3.1-.4.1-.2 0-.4-.1-.6-.2-.3-.2-.4-.6-.4-.9l1.9-12.8-1 .3c-.1 0-.2.1-.3.1-.2 0-.4-.1-.6-.2-.3-.2-.4-.5-.4-.9.1-.6.1-1.2.2-1.8.1-1.3.2-2.5.4-3.6.4-3.1.8-6.2 1.2-9.4l.1-1c.1-.4.1-1 .5-1.4 2.8-3.7 6.1-6.6 10-8.9.2-.1.3-.1.5-.1.1 0 .3 0 .4.1.3.1.5.4.6.7l.1.4 7-5.1c.2-.1.4-.2.6-.2h.3c.3.1.5.3.7.6l.6 1.4c2.4-1.2 5.3-2.3 8.6-2.3.7 0 1.4 0 2.1.1.3 0 .6.2.8.5s.1.6 0 .9l-.9 1.4c3.4.8 6.2 2.8 8.7 6.3.3.4.2 1-.1 1.3l-2 1.9c1.5 3.2 1.8 6.4.9 9.6-.1.4-.5.7-1 .7h-1.8c-.4 3.3-1.4 6-3.2 8.3 3.1 2.6 5.4 5.5 6.8 8.8.2.4 0 1-.4 1.2-.2.1-.3.2-.5.4-.4.3-.8.6-1.3.8-.1.1-.2.1-.2.1s0 .1.1.3c1.2 3.2 1.5 6.2 1 9-.3 1.6-.7 3.1-1.1 4.6-.2.7-.4 1.3-.5 2-.1.4-.4.6-.7.7l-.4.1H62c-.3 0-.6-.1-.8-.4l-1.2-1.4c-1.6 3.4-3.7 6.8-7.5 8.9-.1.1-.3.1-.5.1-.1 0-.3 0-.4-.1-.3-.1-.5-.3-.6-.6l-.5-1.5c-.2.1-.3.2-.5.3-1.2.8-2.3 1.5-3.5 2.2s-2.3 1.4-3.6 2.1c-.6.3-1.2.6-1.8 1-.2.1-.3.1-.5.1s-.3 0-.5-.1c-.3-.2-.5-.5-.5-.9v-2.6l-9.8 4.5c.4.3.2.3.1.3zM43.4 131c.2 0 .4.1.6.2.3.2.4.5.4.8l-.1 4.5c3.2-2 5.1-5.9 5.2-9.3l-2.3.2h-.1c-.3 0-.5-.1-.7-.3-.2-.2-.3-.5-.3-.8l.1-.5c-1.2.5-2.3 1-3.4 1.5v3.8l.3-.1c.1.1.2 0 .3 0zm-1.9-22.8c.2 0 .4.1.6.2.2.2.4.5.4.8l.1 4.3c1.2-.9 2-2.1 2.7-3.4.2-.3.5-.6.9-.6.1 0 .2 0 .4.1.1 0 .1 0 .2.1.2.1.5.2.7.4.1.1.2.1.2.1s.1-.1.1-.2l.1-.3c.5-1.2 1-2.5 1-3.6v-.4c0-.4.1-.8.1-1.1h-1.4c-.2 0-.4-.1-.5-.2-.3-.2-.6-.6-.5-1l.2-1.6c-2 0-3.8.6-5.7 2-.2 1.6-.5 3.2-.7 4.8l.9-.3c0-.1.1-.1.2-.1z"/><path class="st3" d="M55.9 85.4c.6 0 1.3 0 1.9.1-.5.9-.9 1.7-1.4 2.6 4.2.5 7.1 2.8 9.5 6.1-.9.8-1.7 1.6-2.6 2.4 1.5 3 2.1 6.2 1.2 9.6h-2.7c-.3 3.6-1.3 6.7-3.7 9.5 3.2 2.5 5.7 5.4 7.3 9.1-.6.4-1.1.8-1.7 1.1-.7.4-.9.8-.6 1.6 1 2.7 1.5 5.6 1 8.5-.4 2.2-1.1 4.3-1.6 6.5-.1 0-.2.1-.4.1-.7-.8-1.4-1.6-2.2-2.6-1.8 4.1-3.8 7.7-7.7 9.9-.3-.9-.6-1.8-.9-2.8-1.7 1.1-3.3 2.2-5 3.2s-3.4 1.9-5.4 3c0-1.5 0-2.7-.1-4.1-3.9 1.8-7.5 3.5-11.1 5.1-.1-3.8-.1-7.5-.2-11.4-.7.4-1.5.8-2.4 1.2.4-5.7.8-11.2 1.3-16.8-1 .5-1.9.9-2.9 1.4.7-4.9 1.4-9.6 2.1-14.5-.9.3-1.6.6-2.5.9.2-1.9.3-3.6.5-5.4.4-3.5.9-6.9 1.4-10.4 0-.3.1-.7.3-.9 2.7-3.5 5.8-6.4 9.7-8.6.2.7.3 1.2.5 1.8 2.7-2 5.4-3.9 8.2-5.9.4 1 .7 1.6 1.1 2.4 2.9-1.5 5.9-2.7 9.1-2.7m-16.8 24.5c.9-.2 1.6-.5 2.4-.7 0 2.1.1 4.1.1 6.2 2.1-1.2 3.6-2.8 4.6-4.8.3.1.5.1.7.3.3.2.6.4.9.4.5 0 .8-.4 1-.9.5-1.4 1.1-2.8 1.2-4.2.2-3 .3-2.5-2.3-2.6 0 0-.1 0-.1-.1.1-.9.3-1.7.4-2.7-.4 0-.8-.1-1.2-.1-2.4 0-4.4.9-6.3 2.2-.2.1-.3.4-.4.6-.4 2.1-.7 4.2-1 6.4m2.7 22.6c.5-.1 1-.3 1.6-.5-.1 2.1-.1 4.1-.2 6.2 4.7-1.8 7.6-7.5 7.2-12-1.1.1-2.2.2-3.4.4.1-.8.2-1.5.3-2.3-1.8.8-3.5 1.5-5.1 2.2-.2.1-.5.4-.5.6 0 1.8.1 3.6.1 5.4m14.1-49.1c-3.1 0-5.8.9-8.1 2l-.2-.5c-.2-.5-.7-1-1.3-1.1-.2 0-.3-.1-.5-.1-.4 0-.8.1-1.2.4l-6.1 4.4c-.2-.2-.4-.4-.7-.5-.2-.1-.5-.1-.7-.1-.4 0-.7.1-1 .3-4 2.3-7.3 5.3-10.2 9.1-.5.7-.6 1.4-.7 1.9l-.1 1.1-1.2 9.3c-.2 1.2-.3 2.4-.4 3.7-.1.6-.1 1.2-.2 1.8-.1.7.2 1.3.7 1.8.4.3.8.4 1.2.4h.1l-1.6 11.3c-.1.7.2 1.5.8 1.9.4.3.8.4 1.2.4.2 0 .5 0 .7-.1l-.6 7.9-.4 5.5c-.1.7.3 1.4.9 1.8.3.2.7.3 1.1.3h.4v1.9l.1 6.3c0 .7.4 1.3.9 1.7.3.2.7.3 1.1.3.3 0 .6-.1.8-.2l8.4-3.9v1c0 .7.4 1.4 1 1.7.3.2.7.3 1 .3s.7-.1 1-.3c.6-.3 1.2-.7 1.8-1 1.3-.7 2.5-1.4 3.6-2.1 1-.6 1.9-1.2 2.8-1.8l.1.2c.2.6.6 1 1.2 1.3.2.1.5.1.7.1.3 0 .7-.1 1-.2 3.5-1.9 5.7-4.9 7.2-7.9l.2.2c.4.5 1 .7 1.5.7.2 0 .4 0 .5-.1l.3-.1c.7-.2 1.2-.7 1.4-1.4s.3-1.3.5-2c.4-1.5.8-3.1 1.1-4.7.5-2.9.2-5.8-.9-9 .3-.2.6-.4.8-.6.2-.1.3-.2.5-.4.8-.5 1.1-1.6.7-2.5-1.4-3.2-3.5-6-6.4-8.6 1.4-2.1 2.2-4.4 2.7-7.2h1c.9 0 1.7-.6 1.9-1.5.9-3.2.6-6.4-.7-9.6l.3-.3 1.2-1.1c.8-.7.9-1.8.3-2.7-2.4-3.3-5-5.3-8.1-6.3l.2-.3c.3-.6.3-1.3 0-1.8-.3-.6-.9-1-1.5-1.1-.6.1-1.3.1-2.1.1zM42 104.2c1.2-.8 2.4-1.3 3.6-1.5l-.1.4c-.1.8.3 1.7 1 2.1.1.1.5.3 1 .3h.4v.4c-.1.9-.4 1.9-.8 2.8h-.2c-.2-.1-.5-.1-.7-.1-.7 0-1.4.4-1.8 1.1-.2.5-.5 1-.8 1.4V109.2c0-.6-.3-1.2-.8-1.6-.3-.3-.8-.4-1.2-.4.1-1 .2-2 .4-3zm1.8 23.8l1.5-.6c.1.2.2.4.4.6.4.4.9.6 1.4.6h.2l1.1-.1c-.3 2.1-1.4 4.4-3 6l.1-2.3c0-.6-.3-1.3-.8-1.7-.3-.2-.5-.3-.8-.4-.1-.7-.1-1.4-.1-2.1zm-.4 6z"/><path class="st2" d="M90.2 151.8c-.5 0-1.1 0-1.6-.1-3.5-.3-6.6-1.9-9.1-4.7l-2 1.6c-.2.2-.4.2-.6.2h-.2c-.3-.1-.6-.3-.7-.5-2.2-4.2-3.3-8.8-3.6-14.8l-1.2.6c-.1.1-.3.1-.4.1-.2 0-.3 0-.5-.1-.3-.2-.5-.5-.5-.8-.4-4.6 0-9.1.4-13.7 0-.3.1-.7.1-1l-.7.5c-.2.1-.4.2-.6.2s-.3 0-.4-.1c-.3-.2-.5-.5-.6-.9v-1.5c0-1.1-.1-2.2 0-3.4.4-4.4.9-8.8 1.4-13.1l.3-2.7c0-.3.2-1.1.8-1.6 1.8-1.2 3.5-2.4 5.4-3.7l1.6-1.1c.2-.1.4-.2.6-.2s.3 0 .5.1c.3.2.5.6.5.9l-.1 1.2 6-3.2c.1-.1.3-.1.5-.1s.4.1.6.2c.3.2.5.6.4 1l-2.6 13.1 1.7-.7c.1 0 .2-.1.4-.1s.4.1.6.2c.3.2.4.6.4.9l-2.3 15.6 2.1-.9c.1-.1.3-.1.4-.1.2 0 .4.1.5.2.3.2.5.5.5.8v1.9c0 1.5 0 2.8.1 4.2.1 2.1.4 4.3.7 6.5.2 1.3.8 1.4 1.1 1.4h.3c.8 0 1.2-.5 1.4-1 .8-1.8 1.5-3.3 1.8-4.9.5-2.6.9-5.3 1.3-8.1.1-.6.2-1.3.3-1.9l-2 .7c-.1 0-.2.1-.3.1-.2 0-.4-.1-.6-.2-.3-.2-.4-.6-.4-.9l1.6-12.1-1.4.6c-.1.1-.3.1-.4.1-.2 0-.4-.1-.6-.2-.3-.2-.4-.6-.4-.9l.2-1.6c.2-1.1.3-2.2.5-3.3.2-1.1.4-2.3.5-3.4.4-2.3.7-4.5 1-6.8.1-1.1.5-2.2 2-3 1.6-.8 3.1-1.7 4.7-2.6l2.1-1.2c.2-.1.3-.1.5-.1s.4.1.6.2c.3.2.5.6.4 1l-.1.9 5.5-2.9c.1-.1.3-.1.5-.1s.4.1.6.2c.3.2.5.6.4 1l-1.4 7.2 2-.7c.1 0 .2-.1.3-.1.2 0 .5.1.6.2.3.2.4.6.4.9l-2.6 17.6 1.5-.5h.3c.2 0 .5.1.7.2.3.2.4.6.3.9-.1.9-.3 1.8-.4 2.7-.3 2-.6 3.9-.9 5.9-.4 2-.9 3.9-1.3 5.8-.1.5-.2 1-.4 1.5l1.7.2c.3 0 .5.2.7.4.2.2.2.5.2.8-2.1 9.4-6.3 15.6-13.1 19.2l1.1 1.4c.2.2.2.5.2.8s-.2.5-.4.7c-3.2 2-6.3 3-9.4 3z"/><path class="st3" d="M109 83.4c-.6 3.1-1.2 5.9-1.8 9 1.3-.5 2.3-.8 3.7-1.3-1 6.5-1.9 12.8-2.8 19.2.8-.3 1.7-.5 3-.9-.4 3-.8 5.8-1.3 8.5-.5 2.8-1.3 5.5-2 8.4.9.1 1.8.2 2.8.4-1.8 8.3-5.6 15.2-13.7 19.1.6.8 1.2 1.6 1.9 2.4-2.7 1.7-5.5 2.7-8.6 2.7-.5 0-1 0-1.5-.1-3.7-.4-6.7-2.2-9.1-5.1-.9.7-1.8 1.5-2.7 2.3-2.6-5-3.4-10.3-3.6-15.9-.9.4-1.7.8-2.6 1.2-.4-5.6.2-11.1.7-16.8-1 .7-1.7 1.2-2.5 1.8 0-1.6-.2-3.2 0-4.8.5-5.3 1.1-10.5 1.7-15.8 0-.3.2-.7.4-.9 2.3-1.6 4.6-3.1 7-4.8-.1 1.1-.1 1.9-.2 3 2.6-1.4 5-2.7 7.7-4.1-1 5-1.9 9.8-2.9 14.9 1.3-.5 2.3-.9 3.4-1.3-.8 5.8-1.7 11.5-2.5 17.3 1.4-.6 2.6-1.1 3.7-1.6 0 2.1 0 4.2.1 6.2.1 2.2.4 4.4.7 6.6.2 1 .6 2 1.9 2.2h.4c1.1 0 1.9-.6 2.3-1.6.8-1.6 1.5-3.4 1.9-5.1.7-3.8 1.2-7.6 1.8-11.7-1.3.5-2.3.8-3.6 1.3.6-4.7 1.2-9.2 1.9-13.9-.9.4-1.9.8-3 1.3.3-1.7.5-3.4.7-5 .5-3.4 1.1-6.8 1.6-10.2.1-1 .5-1.7 1.5-2.2 2.3-1.1 4.4-2.5 6.8-3.8-.2 1.1-.3 1.9-.4 2.9 2.4-1.3 4.7-2.5 7.2-3.8m0-2c-.4 0-.7.1-1 .2l-2.9 1.5-1 .5c-.3-.8-1-1.4-1.9-1.4-.4 0-.7.1-1 .3-.7.4-1.4.8-2 1.2-1.6.9-3.1 1.8-4.7 2.6-2 1-2.4 2.6-2.6 3.8-.3 2.3-.7 4.6-1 6.8-.2 1.1-.4 2.3-.5 3.4-.2 1.1-.3 2.2-.5 3.4l-.2 1.6c-.1.7.2 1.4.8 1.9.4.3.8.4 1.2.4.2 0 .4 0 .6-.1l-1.4 10.4c-.1.7.2 1.4.7 1.8.4.3.8.4 1.3.4.2 0 .5 0 .7-.1l.4-.2v.3c-.4 2.8-.8 5.4-1.3 8-.3 1.5-.9 2.9-1.7 4.7-.2.4-.4.4-.5.4h-.2s-.1-.1-.2-.5c-.3-2.2-.6-4.3-.7-6.4-.1-1.4-.1-2.7-.1-4.2v-2c0-.7-.4-1.3-.9-1.6-.3-.2-.7-.3-1.1-.3-.3 0-.5.1-.8.2l-.4.2.7-4.9 1.3-8.8v-.4c0-1.1-.9-2-2-2H86c-.2 0-.5.1-.7.2l.6-3 1.6-8.2c0-.2.1-.3.1-.5 0-1.1-.9-2-2-2h-.1c-.3 0-.6.1-.9.2L80 91.6h-.1c-.2-.9-1-1.6-2-1.6-.4 0-.8.1-1.1.4l-1.6 1.1c-1.9 1.3-3.6 2.5-5.4 3.7-.9.7-1.2 1.8-1.2 2.3l-.3 2.7c-.5 4.3-1 8.8-1.4 13.1-.1 1.2-.1 2.4 0 3.5v1.5c0 .7.4 1.4 1.1 1.8.3.1.6.2.9.2h.2c-.4 4.3-.7 8.7-.4 13.1.1.7.4 1.2 1 1.6.3.2.7.3 1 .3.2 0 .5 0 .7-.1.4 5.5 1.6 9.8 3.6 13.8.3.5.8.9 1.4 1h.4c.5 0 .9-.2 1.3-.5l1.3-1c2.6 2.6 5.7 4 9.1 4.4.6.1 1.1.1 1.7.1 3.3 0 6.6-1 9.7-3.1.5-.3.8-.8.9-1.3.1-.6 0-1.1-.4-1.6l-.4-.5c6.5-3.9 10.6-10.1 12.6-19.3.1-.5 0-1.1-.3-1.6s-.8-.8-1.4-.8l-.6-.1c0-.1.1-.3.1-.4.5-1.9 1-3.9 1.4-5.9s.7-3.9.9-5.9c.1-.9.2-1.8.4-2.7.1-.7-.2-1.4-.7-1.8-.4-.3-.8-.5-1.3-.5-.2 0-.4 0-.5.1l.5-3.7 1.8-12.2v-.4c0-1.1-.9-2-2-2h-.1c-.2 0-.4.1-.6.1l-.3.1.2-.8.9-4.5c0-.2.1-.3.1-.5-.1-1.4-.9-2.3-2.1-2.3zm0 4z"/><path class="st2" d="M112.6 153.5c-.3 0-.5-.1-.7-.3l-.2-.2c-.3-.3-.4-.8-.2-1.2l7-13.3-2 .4h-.2c-.3 0-.6-.1-.8-.4-.2-.3-.3-.7-.1-1.1l8.1-15.2-2.5.4h-.2c-.3 0-.6-.1-.8-.4-.2-.3-.3-.7-.1-1l7.7-15.3-13.5 4.1h-.3c-.3 0-.5-.1-.7-.3-.3-.3-.3-.7-.2-1l2.6-7.2.9-2.6c.9-2.5 1.7-4.9 2.7-7.4.2-.6.9-1.4 1.7-1.7 2.6-.9 5.3-1.7 8-2.6l1.9-.6c.2-.1.4-.1.6-.1l.3-.1h.2c.3 0 .6.1.7.3.2.3.3.6.2.9l-.7 2.2 22.4-6.4h.3c.3 0 .6.1.8.4s.3.8.1 1.1L147.9 98h1.1c.4 0 .7.2.9.5s.2.7-.1 1l-9 12.9h2.7c.3 0 .7.2.8.5.2.3.2.7 0 1l-8.1 15.9 16.5-6.1c.1 0 .2-.1.3-.1.3 0 .5.1.7.3.3.3.3.7.2 1.1l-3.7 8.5 2.4-.6h.3c.3 0 .6.1.8.4.2.3.3.7.1 1.1l-.8 1.7c-1.2 2.6-2.4 5-3.6 7.5-.2.4-.5.7-.9.9-2 1-4.1 1.9-6.2 2.9l-1.6.7c-.1.1-.3.1-.4.1-.2 0-.4-.1-.6-.2-.3-.2-.5-.5-.4-.9l.1-1.4L126 152c-.1.1-.3.1-.4.1-.2 0-.5-.1-.6-.2-.3-.2-.4-.6-.3-1l.8-2.9-12.4 5.6c-.3-.2-.4-.1-.5-.1z"/><path class="st3" d="M154.8 84.5c-3 4.9-5.8 9.7-8.8 14.5h2.8c-3.4 4.9-6.7 9.6-10.1 14.5 1.6 0 3 0 4.7-.1-3.1 6.1-6.1 12-9.3 18.2 6.4-2.4 12.5-4.7 18.9-7-1.6 3.5-3 6.8-4.6 10.4 1.5-.4 2.9-.8 4.4-1.2-1.5 3.2-3 6.2-4.5 9.2-.1.2-.3.4-.5.5-2.5 1.2-5.1 2.4-7.8 3.7.1-1.1.1-2 .2-3.1-5 2.3-9.8 4.6-14.9 7 .4-1.7.8-3.2 1.3-4.9-4.9 2.2-9.6 4.3-14.3 6.5l-.2-.2c2.6-5 5.2-10 8-15.2-1.4.3-2.6.5-4 .7 3-5.7 6-11.2 9.1-17-1.6.3-2.9.5-4.5.7 2.9-5.8 5.8-11.5 8.8-17.4-5.3 1.6-10.4 3.1-15.7 4.7.9-2.5 1.7-4.9 2.6-7.2 1.2-3.3 2.3-6.6 3.6-9.9.2-.4.6-1 1.1-1.1 3.3-1.1 6.6-2.1 9.8-3.2.2-.1.4-.1.8-.1-.4 1.4-.8 2.6-1.2 4 8.3-2.4 16.2-4.7 24.3-7M154.8 82.5h-.2c-.2 0-.3 0-.4.1l-20.6 5.9.1-.4c.1-.2.1-.4.1-.7 0-1.1-.9-2-2-2h-.7c-.2 0-.5.1-.8.2l-1.9.6c-2.6.8-5.3 1.7-8 2.6-1.1.4-2 1.4-2.3 2.3-.9 2.5-1.8 5-2.7 7.4-.3.9-.6 1.7-.9 2.6-.6 1.6-1.2 3.2-1.8 4.9l-.8 2.3c-.3.7-.1 1.5.4 2.1.4.4.9.6 1.4.6.2 0 .4 0 .6-.1l11.2-3.4-2.8 5.5-3.9 7.8c-.3.7-.3 1.5.2 2.1.4.5 1 .8 1.6.8h.3l.5-.1-2.2 4.1-5 9.4c-.4.7-.3 1.5.1 2.1.4.5 1 .8 1.6.8h.3l-6 11.5c-.4.8-.3 1.8.4 2.4l.2.2c.4.4.9.5 1.4.5.3 0 .6-.1.8-.2l5.8-2.6 4.7-2.1-.2.8c-.2.8.1 1.6.6 2 .4.3.8.5 1.3.5.3 0 .6-.1.8-.2l.1-.1 11.7-5.5c.1.6.4 1.1.9 1.5.3.2.7.3 1.1.3.3 0 .6-.1.9-.2l1.6-.8c2.1-1 4.2-2 6.2-2.9.6-.3 1.1-.8 1.4-1.4 1.2-2.4 2.4-4.9 3.6-7.4l.8-1.7c.2-.3.2-.6.2-1 0-1.1-.9-2-2-2h-.1c-.1 0-.3 0-.4.1l-.4.1 2.9-6.5c.1-.3.2-.6.2-.9 0-1.1-.9-2-2-2h-.1c-.2 0-.4.1-.6.1l-14 5.2 6.9-13.5c.2-.3.3-.6.3-1 0-1.1-.9-2-2-2h-.8l3.6-5.2 4.2-6c.3-.3.4-.8.4-1.2 0-.9-.6-1.6-1.3-1.9l1.8-3 5.1-8.5c.2-.3.3-.7.3-1.1.3-.9-.5-1.8-1.7-1.8.1 0 .1 0 0 0zm0 4z"/><path class="st2" d="M152 152.9c-.2 0-.5-.1-.7-.3l-.2-.2c-.3-.3-.4-.8-.2-1.2l7-13.3-2 .4h-.2c-.3 0-.6-.2-.8-.4-.2-.3-.3-.7-.1-1.1l8.1-15.2-2.5.4h-.2c-.3 0-.6-.1-.8-.4s-.3-.7-.1-1l7.7-15.3-13.4 4.1h-.3c-.3 0-.5-.1-.7-.3-.3-.3-.3-.7-.2-1 0 0 .9-2.5 1.1-3.1l.9-2.6c1.4-3.8 2.7-7.6 4.1-11.4.2-.7.8-1.4 1.6-1.7 2.8-.9 5.6-1.8 8.3-2.7l2-.6c.2-.1.3-.1.4-.1h.3c.3 0 .7.1.8.4.2.3.3.6.2.9l-.7 2.2 21.8-6.2h.3c.3 0 .5.1.7.3.3.3.3.7.2 1s-.2.5-.2.7c-.1.5-.3.9-.5 1.3-1.7 2.9-3.4 5.7-5.2 8.5l-1.5 2.5h1.1c.4 0 .7.2.9.5s.2.7-.1 1l-9 12.9h2.7c.3 0 .7.2.9.5s.2.7.1 1l-8.1 15.9 16.5-6.1c.1 0 .2-.1.3-.1.3 0 .5.1.7.3.3.3.3.7.2 1.1l-3.7 8.5 2.4-.6h.3c.3 0 .6.1.8.4.2.3.3.7.1 1.1l-.8 1.7c-1.3 2.6-2.4 5.1-3.7 7.5-.2.4-.5.7-.9.9-2.1 1-4.1 2-6.3 3l-1.5.7c-.1.1-.3.1-.4.1-.2 0-.4-.1-.6-.2-.3-.2-.5-.5-.4-.9l.1-1.4-13.4 6.3c-.1.1-.3.1-.4.1-.2 0-.5-.1-.6-.2-.3-.2-.4-.6-.3-1l.8-2.9-12.4 5.6c0-.3-.2-.3-.3-.3z"/><path class="st3" d="M193.7 84.1c-.3.8-.4 1.4-.7 1.8-2.3 3.8-4.6 7.6-6.9 11.5-.2.3-.4.6-.6 1.1h2.8c-3.4 4.9-6.7 9.6-10.1 14.5 1.6 0 3 0 4.7-.1-3.1 6.1-6.1 12-9.3 18.1 6.4-2.4 12.5-4.7 18.9-7-1.6 3.5-3 6.8-4.6 10.4 1.5-.4 2.9-.8 4.4-1.2-1.5 3.2-3 6.2-4.5 9.2-.1.2-.3.4-.5.5-2.5 1.2-5.1 2.4-7.8 3.7.1-1.1.1-2 .2-3.1-5 2.3-9.8 4.6-14.9 7 .4-1.7.8-3.2 1.3-4.9-4.9 2.2-9.6 4.3-14.3 6.5l-.2-.2c2.6-5 5.2-9.9 7.9-15.1-1.4.2-2.6.5-4 .7 3-5.7 6-11.2 9.1-17-1.6.3-2.9.5-4.5.7 2.9-5.8 5.8-11.5 8.8-17.4-5.3 1.6-10.4 3.1-15.7 4.7.4-1.2.8-2.2 1.1-3.1 1.7-4.7 3.3-9.3 5-14 .2-.4.5-1 .9-1.1 3.4-1.1 6.8-2.2 10.3-3.3h.5c-.4 1.3-.8 2.5-1.2 3.9 8.2-2.3 15.9-4.5 23.9-6.8M193.7 82.1c-.2 0-.4 0-.5.1l-20.1 5.7.1-.3c.1-.2.1-.4.1-.7 0-1.1-.9-2-2-2h-.5c-.2 0-.4 0-.7.1l-2 .6c-2.7.9-5.6 1.7-8.3 2.7-1.1.4-1.9 1.5-2.2 2.3-1.4 3.8-2.8 7.7-4.1 11.4l-.9 2.6c-.2.7-.5 1.4-.7 2.1l-.4 1.1c-.2.7-.1 1.5.4 2 .4.4.9.6 1.4.6.2 0 .4 0 .6-.1l10.5-3.2.7-.2-6.7 13.2c-.3.7-.3 1.5.2 2.1.4.5 1 .8 1.6.8h.3l.5-.1-3.6 6.7-3.6 6.7c-.4.7-.3 1.5.1 2.1.4.5 1 .8 1.6.8h.3l-6 11.5c-.4.8-.2 1.8.4 2.4l.2.2c.4.3.8.5 1.3.5.3 0 .6-.1.8-.2l10.5-4.7-.2.8c-.2.8.1 1.6.6 2 .4.3.8.5 1.3.5.3 0 .6-.1.8-.2l2.8-1.3 9.1-4.3c.1.6.4 1.1.9 1.5.3.2.7.3 1.1.3.3 0 .6-.1.9-.2l1.6-.8c2.1-1 4.1-2 6.2-2.9.6-.3 1.1-.8 1.4-1.4 1.2-2.4 2.4-4.9 3.6-7.4l.8-1.7c.2-.3.2-.6.2-1 0-1.1-.9-2-2-2h-.1c-.1 0-.3 0-.4.1l-.4.1 2.9-6.5c.1-.3.2-.6.2-.9 0-1.1-.9-2-2-2h-.2c-.2 0-.4.1-.6.1l-14 5.2 4-7.9 2.8-5.6c.2-.3.3-.6.3-1 0-1.1-.9-2-2-2h-.8l4.7-6.8 3.1-4.5c.3-.3.4-.8.4-1.2 0-.9-.6-1.6-1.3-1.9l.7-1.1c1.7-2.8 3.4-5.6 5.1-8.5.3-.5.4-1 .6-1.5.1-.2.1-.4.2-.7.3-.7.1-1.5-.4-2-.1.1-.6-.1-1.2-.1zm0 4z"/></svg>