<?xml version="1.0" encoding="UTF-8" standalone="no"?>
<svg
   xmlns:dc="http://purl.org/dc/elements/1.1/"
   xmlns:cc="http://creativecommons.org/ns#"
   xmlns:rdf="http://www.w3.org/1999/02/22-rdf-syntax-ns#"
   xmlns:svg="http://www.w3.org/2000/svg"
   xmlns="http://www.w3.org/2000/svg"
   xmlns:sodipodi="http://sodipodi.sourceforge.net/DTD/sodipodi-0.dtd"
   xmlns:inkscape="http://www.inkscape.org/namespaces/inkscape"
   width="110"
   height="70"
   viewBox="0 0 110 70"
   version="1.1"
   id="svg4308"
   sodipodi:docname="sprites_new2.svg"
   inkscape:version="0.92.3 (2405546, 2018-03-11)">
  <metadata
     id="metadata4314">
    <rdf:RDF>
      <cc:Work
         rdf:about="">
        <dc:format>image/svg+xml</dc:format>
        <dc:type
           rdf:resource="http://purl.org/dc/dcmitype/StillImage" />
        <dc:title></dc:title>
      </cc:Work>
    </rdf:RDF>
  </metadata>
  <defs
     id="defs4312">
    <clipPath
       id="clipPath4403"
       clipPathUnits="userSpaceOnUse">
      <path
         style="clip-rule:evenodd"
         inkscape:connector-curvature="0"
         id="path4401"
         d="m 3208.57,2725.96 c -183.49,0 -277.25,-144.42 -277.25,-362 0,-205.66 101.38,-360.04 277.25,-360.04 198.89,0 273.45,182.02 273.45,360.04 -0.14,185.9 -93.84,362 -273.51,362 M 2721,3265.92 h 217.97 v -522.15 h 3.85 c 59.28,98.87 183.55,160.21 294.46,160.21 311.63,0 462.74,-245.35 462.74,-544.05 0,-274.84 -133.84,-533.97 -426.43,-533.97 -133.85,0 -277.25,33.54 -342.29,168.09 h -3.78 v -140.51 h -206.53 v 1412.35 l 0.01,0.03" />
    </clipPath>
    <clipPath
       id="clipPath4409"
       clipPathUnits="userSpaceOnUse">
      <path
         inkscape:connector-curvature="0"
         id="path4407"
         d="M 0,0 H 5120 V 5120 H 0 Z" />
    </clipPath>
    <clipPath
       id="clipPath4419"
       clipPathUnits="userSpaceOnUse">
      <path
         style="clip-rule:evenodd"
         inkscape:connector-curvature="0"
         id="path4417"
         d="m 4503.89,2534.02 c -17.22,124.62 -105.15,191.92 -225.61,191.92 -112.87,0 -271.54,-61.35 -271.54,-371.91 0,-170.13 72.64,-350.15 261.97,-350.15 126.18,0 214.11,87.14 235.18,233.51 h 217.97 c -40.16,-265.06 -198.84,-411.43 -453.15,-411.43 -309.78,0 -479.95,227.42 -479.95,528.07 0,308.56 162.53,549.89 487.6,549.89 229.44,0 424.54,-118.68 445.5,-369.91 h -217.61 l -0.36,0.01" />
    </clipPath>
    <clipPath
       id="clipPath4425"
       clipPathUnits="userSpaceOnUse">
      <path
         inkscape:connector-curvature="0"
         id="path4423"
         d="M 0,0 H 5120 V 5120 H 0 Z" />
    </clipPath>
    <clipPath
       id="clipPath4435"
       clipPathUnits="userSpaceOnUse">
      <path
         style="clip-rule:evenodd"
         inkscape:connector-curvature="0"
         id="path4433"
         d="M 1958.95,1856.62 H 324.078 l 763.462,1409.3 h 1634.88 l -763.47,-1409.3" />
    </clipPath>
    <clipPath
       id="clipPath4441"
       clipPathUnits="userSpaceOnUse">
      <path
         inkscape:connector-curvature="0"
         id="path4439"
         d="M 0,0 H 5120 V 5120 H 0 Z" />
    </clipPath>
    <clipPath
       id="clipPath4403-3"
       clipPathUnits="userSpaceOnUse">
      <path
         style="clip-rule:evenodd"
         inkscape:connector-curvature="0"
         id="path4401-6"
         d="m 3208.57,2725.96 c -183.49,0 -277.25,-144.42 -277.25,-362 0,-205.66 101.38,-360.04 277.25,-360.04 198.89,0 273.45,182.02 273.45,360.04 -0.14,185.9 -93.84,362 -273.51,362 M 2721,3265.92 h 217.97 v -522.15 h 3.85 c 59.28,98.87 183.55,160.21 294.46,160.21 311.63,0 462.74,-245.35 462.74,-544.05 0,-274.84 -133.84,-533.97 -426.43,-533.97 -133.85,0 -277.25,33.54 -342.29,168.09 h -3.78 v -140.51 h -206.53 v 1412.35 l 0.01,0.03" />
    </clipPath>
    <clipPath
       id="clipPath4409-7"
       clipPathUnits="userSpaceOnUse">
      <path
         inkscape:connector-curvature="0"
         id="path4407-5"
         d="M 0,0 H 5120 V 5120 H 0 Z" />
    </clipPath>
    <clipPath
       id="clipPath4419-3"
       clipPathUnits="userSpaceOnUse">
      <path
         style="clip-rule:evenodd"
         inkscape:connector-curvature="0"
         id="path4417-5"
         d="m 4503.89,2534.02 c -17.22,124.62 -105.15,191.92 -225.61,191.92 -112.87,0 -271.54,-61.35 -271.54,-371.91 0,-170.13 72.64,-350.15 261.97,-350.15 126.18,0 214.11,87.14 235.18,233.51 h 217.97 c -40.16,-265.06 -198.84,-411.43 -453.15,-411.43 -309.78,0 -479.95,227.42 -479.95,528.07 0,308.56 162.53,549.89 487.6,549.89 229.44,0 424.54,-118.68 445.5,-369.91 h -217.61 l -0.36,0.01" />
    </clipPath>
    <clipPath
       id="clipPath4425-6"
       clipPathUnits="userSpaceOnUse">
      <path
         inkscape:connector-curvature="0"
         id="path4423-2"
         d="M 0,0 H 5120 V 5120 H 0 Z" />
    </clipPath>
    <clipPath
       id="clipPath4435-9"
       clipPathUnits="userSpaceOnUse">
      <path
         style="clip-rule:evenodd"
         inkscape:connector-curvature="0"
         id="path4433-1"
         d="M 1958.95,1856.62 H 324.078 l 763.462,1409.3 h 1634.88 l -763.47,-1409.3" />
    </clipPath>
    <clipPath
       id="clipPath4441-2"
       clipPathUnits="userSpaceOnUse">
      <path
         inkscape:connector-curvature="0"
         id="path4439-7"
         d="M 0,0 H 5120 V 5120 H 0 Z" />
    </clipPath>
  </defs>
  <sodipodi:namedview
     pagecolor="#ffffff"
     bordercolor="#666666"
     borderopacity="1"
     objecttolerance="10"
     gridtolerance="10"
     guidetolerance="10"
     inkscape:pageopacity="0"
     inkscape:pageshadow="2"
     inkscape:window-width="1855"
     inkscape:window-height="1056"
     id="namedview4310"
     showgrid="false"
     inkscape:zoom="11.413333"
     inkscape:cx="61.107696"
     inkscape:cy="37.622995"
     inkscape:window-x="65"
     inkscape:window-y="24"
     inkscape:window-maximized="1"
     inkscape:current-layer="svg4308" />
  <svg
     transform="translate(-0.63634005,-1.9)"
     id="icon_send"
     viewBox="0 0 30 30"
     width="30"
     height="30"
     version="1.1">
    <style
       id="style4254">.ast0{fill:#fee4dd}</style>
    <path
       style="fill:#fee4dd"
       inkscape:connector-curvature="0"
       class="ast0"
       d="m 13.6,25 c 0.4,0 0.8,-0.2 1,-0.5 l 2,-2.2 4,2.8 c 0.3,0.2 0.5,0.3 0.8,0.3 0.2,0 0.4,0 0.5,-0.1 0.5,-0.2 0.8,-0.6 0.9,-1.1 l 4,-18.8 C 26.9,5.1 26.7,4.7 26.5,4.5 26.2,4.3 25.9,4.2 25.6,4.4 L 3.6,14 c -0.6,0.3 -0.9,0.8 -0.9,1.4 0,0.6 0.4,1.1 1,1.3 l 5.4,1.6 c 0.5,0.2 1,-0.1 1.1,-0.6 0.2,-0.5 -0.1,-1 -0.6,-1.1 L 5,15.3 22.1,7.8 12.2,17.9 12.1,18 12,18.1 c 0,0 0,0.1 -0.1,0.1 -0.1,0 0,0.1 -0.1,0.1 v 0.4 l 0.3,5.1 c 0,0.6 0.4,1 0.9,1.2 h 0.6 m 0.3,-2.4 -0.1,-2.2 1.3,0.9 z m 7.3,0.7 -7,-4.8 10.2,-10.2 z"
       id="path4256" />
  </svg>
  <svg
     transform="translate(29.36366,-1.9)"
     id="social_facebook"
     viewBox="0 0 20 20"
     width="20"
     height="20"
     x="30"
     version="1.1">
    <style
       id="style4259">.bst0{fill:#5A96FF}</style>
    <path
       style="fill:#5A96FF"
       inkscape:connector-curvature="0"
       class="bst0"
       d="M 6.1,7.3 H 7.8 V 5.6 c 0,-0.7 0,-1.8 0.5,-2.5 0.5,-0.7 1.3,-1.2 2.6,-1.2 2.1,0 3,0.3 3,0.3 l -0.4,2.5 c 0,0 -0.7,-0.2 -1.3,-0.2 -0.7,0 -1.2,0.2 -1.2,0.9 v 1.9 h 2.7 L 13.5,9.7 H 11 v 8.4 H 7.8 V 9.7 H 6.1 Z"
       id="path4261" />
  </svg>
  <svg
     transform="translate(-0.63634005,28.1)"
     id="social_instagram"
     viewBox="0 0 20 20"
     width="20"
     height="20"
     y="30"
     version="1.1">
    <style
       id="style4264">.cst0{fill:#5A96FF}</style>
    <path
       style="fill:#5A96FF"
       inkscape:connector-curvature="0"
       class="cst0"
       d="M 10,19 H 6.6 C 5.7,19 5,18.8 4.3,18.6 3.6,18.4 3,18 2.5,17.4 2,16.9 1.6,16.3 1.4,15.6 1.2,15 1,14.3 1,13.4 V 10 6.6 C 1,5.7 1.2,5 1.4,4.4 1.6,3.7 2,3.1 2.6,2.6 3.1,2.1 3.7,1.7 4.4,1.5 5,1.2 5.7,1 6.6,1 h 6.8 C 14.3,1 15,1.2 15.7,1.4 16.4,1.6 17,2 17.5,2.6 18,3.1 18.4,3.7 18.6,4.4 18.8,5 19,5.7 19,6.6 v 6.8 C 19,14.3 18.8,15 18.6,15.7 18,17 17,18 15.6,18.6 15,18.8 14.3,19 13.4,19 Z M 10,2.9 H 6.7 C 6,2.9 5.5,3 5,3.2 4.6,3.4 4.2,3.6 3.9,3.9 3.6,4.2 3.4,4.6 3.2,5 3,5.5 2.9,6 2.9,6.7 v 6.6 c 0,0.7 0.1,1.2 0.3,1.7 0.2,0.4 0.4,0.8 0.7,1.1 0.3,0.3 0.7,0.6 1.1,0.7 0.3,0.1 0.8,0.3 1.7,0.3 h 6.6 c 0.7,0 1.2,-0.1 1.7,-0.3 0.8,-0.3 1.5,-1 1.8,-1.8 0.2,-0.5 0.3,-1 0.3,-1.7 V 10 6.7 C 17.1,6 17,5.5 16.8,5 16.6,4.6 16.4,4.2 16.1,3.9 15.8,3.6 15.4,3.3 15,3.2 14.5,3 14,2.9 13.3,2.9 Z"
       id="path4266" />
    <path
       style="fill:#5A96FF"
       inkscape:connector-curvature="0"
       class="cst0"
       d="M 10,15 C 7.2,15 5,12.8 5,10 5,7.2 7.2,5 10,5 c 2.8,0 5,2.2 5,5 0,2.8 -2.2,5 -5,5 z m 0,-8.1 c -1.7,0 -3.1,1.4 -3.1,3.1 0,1.7 1.4,3.1 3.1,3.1 1.7,0 3.1,-1.4 3.1,-3.1 0,-1.7 -1.4,-3.1 -3.1,-3.1 z"
       id="path4268" />
    <circle
       style="fill:#5A96FF"
       class="cst0"
       cx="14.8"
       cy="5.1999998"
       r="0.89999998"
       id="circle4270" />
  </svg>
  <svg
     transform="translate(19.36366,28.1)"
     id="social_snapchat"
     viewBox="0 0 20 20"
     width="20"
     height="20"
     x="20"
     y="30"
     version="1.1">
    <style
       id="style4273">.dst0{fill:#5A96FF}</style>
    <path
       style="fill:#5A96FF"
       inkscape:connector-curvature="0"
       class="dst0"
       d="M 10.1,16.1 H 10 9.9 c -1,0 -1.7,-0.5 -2.3,-0.9 -0.4,-0.3 -0.9,-0.6 -1.3,-0.7 -0.2,0 -0.5,-0.1 -0.7,-0.1 -0.4,0 -0.7,0.1 -1,0.1 -0.1,0 -0.3,0.1 -0.4,0.1 -0.1,0 -0.2,0 -0.3,-0.2 C 3.9,14.3 3.8,14.1 3.8,14 3.7,13.7 3.7,13.5 3.5,13.4 1.9,13.2 1.4,12.8 1.3,12.6 V 12.5 C 1.3,12.4 1.4,12.3 1.5,12.3 4,11.9 5.1,9.3 5.2,9.2 5.4,8.9 5.4,8.6 5.3,8.4 5.1,8 4.6,7.8 4.2,7.7 H 3.9 C 3.2,7.4 3.1,7.1 3.2,6.9 3.2,6.6 3.6,6.5 3.9,6.5 H 4.1 C 4.4,6.7 4.7,6.7 5,6.7 5.4,6.7 5.5,6.6 5.5,6.5 V 6 C 5.4,4.9 5.3,3.4 5.6,2.6 6.7,0.1 9.1,-0.1 9.8,-0.1 h 0.3 c 0.7,0 3.1,0.2 4.2,2.7 0.4,0.8 0.3,2.3 0.2,3.5 v 0.6 c 0,0 0.2,0.2 0.5,0.2 0.2,0 0.5,-0.1 0.8,-0.2 0.1,0 0.2,-0.1 0.3,-0.1 0.1,0 0.2,0 0.3,0.1 0.2,0.1 0.4,0.3 0.4,0.4 0,0.2 -0.1,0.4 -0.8,0.7 -0.1,0 -0.2,0.1 -0.2,0.1 -0.4,0.1 -0.9,0.3 -1.1,0.7 -0.1,0.2 -0.1,0.5 0.1,0.8 0,0.1 1.2,2.7 3.7,3.1 0.1,0 0.2,0.1 0.2,0.2 v 0.1 c -0.1,0.2 -0.6,0.6 -2.2,0.8 -0.1,0 -0.2,0.2 -0.3,0.6 0,0.1 -0.1,0.3 -0.1,0.4 0,0.1 -0.1,0.2 -0.2,0.2 h -0.4 c -0.3,-0.1 -0.6,-0.1 -1,-0.1 -0.2,0 -0.5,0 -0.7,0.1 -0.5,0.1 -0.9,0.4 -1.3,0.7 -0.7,0.1 -1.4,0.6 -2.4,0.6 z"
       id="path4275" />
  </svg>
  <svg
     transform="translate(49.36366,-1.9)"
     id="social_soundcloud"
     viewBox="0 0 20 20"
     width="20"
     height="20"
     x="50"
     version="1.1">
    <style
       id="style4278">.est0{fill:#5A96FF}</style>
    <path
       style="fill:#5A96FF"
       inkscape:connector-curvature="0"
       class="est0"
       d="M 3.8,13.6 V 7.5 c 0,-0.5 0.4,-1 1,-1 0.5,0 1,0.4 1,1 v 6.1 c 0,0.5 -0.4,1 -1,1 -0.5,-0.1 -1,-0.5 -1,-1 z m -3,-0.9 V 10 c 0,-0.5 0.4,-1 1,-1 0.5,0 1,0.4 1,1 v 2.7 c 0,0.5 -0.4,1 -1,1 -0.6,0 -1,-0.4 -1,-1 z m 6,0.9 V 8.1 c 0,-0.5 0.4,-1 1,-1 0.5,0 1,0.4 1,1 v 5.5 c 0,0.5 -0.4,1 -1,1 -0.5,-0.1 -1,-0.5 -1,-1 z M 16.4,8.8 H 16.3 C 15.8,6.8 14,5.5 12,5.5 c -0.6,0 -1.1,0.1 -1.7,0.3 -0.1,0 -0.1,0.1 -0.2,0.1 0,0 -0.2,0.2 -0.2,0.4 v 7.6 c 0,0.3 0.3,0.6 0.6,0.6 h 6 C 18,14.4 19.2,13.1 19.2,11.6 19.3,10.1 18,8.8 16.4,8.8 Z"
       id="path4280" />
  </svg>
  <svg
     transform="translate(49.36366,18.1)"
     id="social_spotify"
     viewBox="0 0 20 20"
     width="20"
     height="20"
     x="50"
     y="20"
     version="1.1">
    <style
       id="style4283">.fst0{fill:#5A96FF}</style>
    <path
       style="fill:#5A96FF"
       inkscape:connector-curvature="0"
       class="fst0"
       d="M 16.7,10.6 C 10.6,6.6 3,9.1 2.7,9.2 2.4,9.3 2.2,9.5 2.1,9.7 2,9.9 2,10.2 2.1,10.5 c 0.2,0.5 0.7,0.8 1.3,0.6 0.3,-0.1 7,-2.3 12.3,1.1 0.2,0.1 0.3,0.2 0.5,0.2 0.3,0 0.6,-0.2 0.8,-0.4 0.1,-0.2 0.2,-0.5 0.1,-0.7 0,-0.4 -0.2,-0.6 -0.4,-0.7 z M 18.9,7.1 C 10.9,1.9 1.6,5.2 1.2,5.3 0.8,5.5 0.5,6.1 0.7,6.6 0.9,7.1 1.5,7.4 2,7.2 2.1,7.2 10.8,4.1 17.9,8.8 18.1,8.9 18.2,9 18.4,9 18.7,9 19,8.8 19.2,8.6 19.5,8 19.4,7.4 18.9,7.1 Z M 14.5,14 C 12.9,13 10.9,12.4 8.6,12.4 6.3,12.4 4.4,13 4.1,13.1 H 4 c -0.3,0.2 -0.6,0.5 -0.6,0.9 0,0.6 0.6,1.1 1.2,1 h 0.1 c 0.4,-0.1 1.9,-0.5 3.8,-0.5 1.9,0 3.5,0.4 4.8,1.3 0.2,0.1 0.3,0.2 0.5,0.2 0.3,0 0.6,-0.2 0.8,-0.4 0.5,-0.7 0.3,-1.3 -0.1,-1.6 z"
       id="path4285" />
  </svg>
  <svg
     transform="translate(-0.63634005,48.1)"
     viewBox="0 0 20 20"
     width="20"
     height="20"
     id="social_spotify_peach"
     y="50"
     version="1.1">
    <g
       style="fill:#fee4dd"
       id="g4290">
      <path
         inkscape:connector-curvature="0"
         d="M 16.7,10.6 C 10.6,6.6 3,9.1 2.7,9.2 2.4,9.3 2.2,9.5 2.1,9.7 2,9.9 2,10.2 2.1,10.5 c 0.2,0.5 0.7,0.8 1.3,0.6 0.3,-0.1 7,-2.3 12.3,1.1 0.2,0.1 0.3,0.2 0.5,0.2 0.3,0 0.6,-0.2 0.8,-0.4 0.1,-0.2 0.2,-0.5 0.1,-0.7 0,-0.4 -0.2,-0.6 -0.4,-0.7 z M 18.9,7.1 C 10.9,1.9 1.6,5.2 1.2,5.3 0.8,5.5 0.5,6.1 0.7,6.6 0.9,7.1 1.5,7.4 2,7.2 2.1,7.2 10.8,4.1 17.9,8.8 18.1,8.9 18.2,9 18.4,9 18.7,9 19,8.8 19.2,8.6 19.5,8 19.4,7.4 18.9,7.1 Z M 14.5,14 C 12.9,13 10.9,12.4 8.6,12.4 6.3,12.4 4.4,13 4.1,13.1 H 4 c -0.3,0.2 -0.6,0.5 -0.6,0.9 0,0.6 0.6,1.1 1.2,1 h 0.1 c 0.4,-0.1 1.9,-0.5 3.8,-0.5 1.9,0 3.5,0.4 4.8,1.3 0.2,0.1 0.3,0.2 0.5,0.2 0.3,0 0.6,-0.2 0.8,-0.4 0.5,-0.7 0.3,-1.3 -0.1,-1.6 z"
         id="path4288" />
    </g>
  </svg>
  <svg
     transform="translate(19.36366,48.1)"
     id="social_twitter"
     viewBox="0 0 20 20"
     width="20"
     height="20"
     x="20"
     y="50"
     version="1.1">
    <style
       id="style4293">.hst0{fill:#5A96FF}</style>
    <path
       style="fill:#5A96FF"
       inkscape:connector-curvature="0"
       class="hst0"
       d="M 18.7,3.7 16.1,4 C 15.4,3.3 14.5,2.9 13.5,2.9 c -2,0 -3.6,1.6 -3.6,3.6 0,0.3 0,0.6 0.1,0.8 C 7,7.1 4.3,5.7 2.6,3.5 2.2,4.1 2,4.7 2,5.3 2,6.5 2.6,7.7 3.6,8.3 3,8.3 2.5,8.2 2,7.9 c 0,1.7 1.2,3.2 2.9,3.5 -0.3,0.1 -0.6,0.1 -1,0.1 -0.2,0 -0.5,0 -0.7,-0.1 C 3.7,13 5,14 6.6,14 5.4,15 3.8,15.5 2.1,15.5 1.8,15.5 1.5,15.5 1.2,15.4 2.8,16.4 4.7,17 6.7,17 13.3,17 17,11.5 17,6.7 V 6.2 c 0.8,-0.6 1.7,-2.5 1.7,-2.5 z"
       id="path4295" />
  </svg>
  <svg
     transform="translate(69.36366,-1.9)"
     id="social_youtube"
     viewBox="0 0 20 20"
     width="20"
     height="20"
     x="70"
     version="1.1">
    <style
       id="style4303">.jst0{fill:#5A96FF}</style>
    <path
       style="fill:#5A96FF"
       inkscape:connector-curvature="0"
       class="jst0"
       d="M 13.2,10 7.7,13.2 V 6.8 Z m 5.2,3 V 7 c 0,0 0,-2.9 -2.9,-2.9 h -11 c 0,0 -2.9,0 -2.9,2.9 v 6 c 0,0 0,2.9 2.9,2.9 h 11 c 0,0 2.9,0 2.9,-2.9"
       id="path4305" />
  </svg>
  <path
     id="social-play"
     overflow="visible"
     font-weight="400"
     d="m 86.665137,24.64476 c -0.867224,-0.0027 -1.452281,0.618518 -1.455272,1.545935 l -0.05604,17.37457 c -0.0029,0.927843 0.578044,1.553269 1.445267,1.556041 0.474746,0.0015 0.794348,-0.125053 1.126599,-0.314681 l 14.920059,-8.438453 c 0.23653,-0.134902 0.95746,-0.544405 0.96031,-1.43087 0.003,-0.887317 -0.71498,-1.301399 -0.95106,-1.437814 l -1.0976,-0.632576 c -0.97595,-3.244144 -3.992957,-5.619378 -7.567174,-5.630806 -0.641512,-0.002 -1.262137,0.08054 -1.860231,0.22235 l -4.338638,-2.491812 c -0.332735,-0.192181 -0.651474,-0.320366 -1.12622,-0.321884 z m 7.322337,3.444536 c 3.909604,0.0125 7.059606,3.168926 7.047056,7.061417 -0.001,0.41535 -0.0472,0.818807 -0.11772,1.213597 l -3.027442,1.712549 c 0.623346,-0.818733 0.999276,-1.834897 1.002846,-2.941329 0.009,-2.709302 -2.190373,-4.912892 -4.911588,-4.921593 -2.721215,-0.0087 -4.934494,2.180782 -4.943232,4.890086 -0.0087,2.709303 2.19037,4.912892 4.911586,4.921593 0.185478,5.97e-4 0.368022,-0.01058 0.548243,-0.02991 l -3.034988,1.71669 c -2.67596,-1.00848 -4.576965,-3.585236 -4.56722,-6.606892 0.01254,-3.892491 3.18286,-7.02871 7.092464,-7.01621 z m 0.200503,4.2583 1.713881,0.0055 -0.004,1.226461 -1.071176,-0.0034 -0.009,2.772865 c -0.002,0.623256 -0.598758,1.117909 -1.235465,1.115873 -0.624281,-0.002 -1.123119,-0.504445 -1.121069,-1.140071 0.002,-0.623255 0.50508,-1.134039 1.141787,-1.132002 0.208236,6.82e-4 0.404173,0.0619 0.575246,0.160146 z"
     style="font-weight:400;line-height:normal;font-family:sans-serif;text-indent:0;text-align:start;text-decoration:none;text-decoration-line:none;text-decoration-style:solid;text-decoration-color:#000000;text-transform:none;white-space:normal;overflow:visible;isolation:auto;mix-blend-mode:normal;stroke-width:0.42753375;fill:#5A96FF;stroke:#5A96FF;"
     inkscape:connector-curvature="0"
     inkscape:label="#path4316" />
  <g
     id="social-amazon"
     transform="matrix(0.42302415,0,0,0.41421376,68.641564,47.455589)"
     inkscape:label="#surface1">
    <path
       id="path4327"
       style="fill:#5A96FF;stroke:#5A96FF;"
       d="M 25.3125,3 C 19.210938,3 12.492188,5.3125 11.09375,12.8125 10.894531,13.613281 11.5,13.992188 12,14.09375 l 6.1875,0.59375 c 0.601563,0 1.019531,-0.585937 1.21875,-1.1875 0.5,-2.601562 2.695313,-3.90625 5.09375,-3.90625 1.300781,0 2.792969,0.519531 3.59375,1.71875 0.898438,1.300781 0.71875,3.09375 0.71875,4.59375 v 0.90625 c -3.699219,0.398438 -8.5,0.6875 -12,2.1875 -4,1.699219 -6.8125,5.207031 -6.8125,10.40625 0,6.601563 4.199219,9.90625 9.5,9.90625 4.5,0 7,-1.117187 10.5,-4.71875 1.199219,1.699219 1.585938,2.511719 3.6875,4.3125 0.5,0.300781 1.101563,0.179688 1.5,-0.21875 v 0.125 c 1.300781,-1.101562 3.605469,-3.210937 4.90625,-4.3125 0.5,-0.300781 0.398438,-1 0,-1.5 C 38.894531,31.398438 37.6875,30.09375 37.6875,27.09375 V 17.1875 c 0,-4.199219 0.320313,-8.101562 -2.78125,-11 C 32.40625,3.789063 28.414063,3 25.3125,3 Z M 27,22 h 1.6875 v 1.40625 c 0,2.398438 0.105469,4.488281 -1.09375,6.6875 C 26.59375,31.894531 24.988281,33 23.1875,33 20.789063,33 19.3125,31.207031 19.3125,28.40625 19.3125,23.707031 23,22.300781 27,22 Z M 44.59375,36.59375 C 42.992188,36.59375 41.085938,37 39.6875,38 c -0.398437,0.300781 -0.375,0.6875 0.125,0.6875 1.601563,-0.199219 5.175781,-0.679687 5.875,0.21875 0.601563,0.800781 -0.679687,4.179688 -1.28125,5.78125 -0.199219,0.5 0.195313,0.613281 0.59375,0.3125 2.699219,-2.300781 3.40625,-6.992187 2.90625,-7.59375 -0.300781,-0.5 -1.710937,-0.8125 -3.3125,-0.8125 z M 2.1875,37.5 c -0.300781,0 -0.492187,0.511719 -0.09375,0.8125 6,5.398438 13.914063,8.6875 22.8125,8.6875 6.300781,0 13.585938,-1.988281 18.6875,-5.6875 0.800781,-0.601562 0.113281,-1.617187 -0.6875,-1.21875 C 37.207031,42.492188 31.101563,43.6875 25.5,43.6875 c -8.300781,0 -16.3125,-2.300781 -22.8125,-6 C 2.488281,37.488281 2.289063,37.5 2.1875,37.5 Z"
       inkscape:connector-curvature="0" />
  </g>
  <g
     transform="matrix(0.03659806,0,0,-0.03669483,45.173298,67.250483)"
     inkscape:label="ink_ext_XXXXXX"
     id="social-bandcamp">
    <g
       transform="matrix(0.12691343,0,0,0.12648677,-69.571216,-68.468294)"
       id="g4393">
       fill:stroke:#5A96FF;
      <path
         inkscape:connector-curvature="0"
         id="path4395"
         style="fill:#5A96FF;fill-opacity:1;fill-rule:nonzero;stroke:none"
         d="M 0,0 H 5170 V 5170 H 0 Z" />
      <g
         id="g4397">
        <g
           clip-path="url(#clipPath4403-3)"
           id="g4399">
          <g
             clip-path="url(#clipPath4409-7)"
             id="g4405">
            <path
               inkscape:connector-curvature="0"
               id="path4411"
               style="fill:#ffffff;fill-opacity:1;fill-rule:nonzero;stroke:none"
               d="M 2670.99,1775.96 H 3750.02 V 3315.92 H 2670.99 Z" />
          </g>
        </g>
      </g>
      <g
         id="g4413">
        <g
           clip-path="url(#clipPath4419-3)"
           id="g4415">
          <g
             clip-path="url(#clipPath4425-6)"
             id="g4421">
            <path
               inkscape:connector-curvature="0"
               id="path4427"
               style="fill:#ffffff;fill-opacity:1;fill-rule:nonzero;stroke:none"
               d="m 3738.76,1775.96 h 1033.1 v 1177.96 h -1033.1 z" />
          </g>
        </g>
      </g>
      <g
         id="g4429">
        <g
           clip-path="url(#clipPath4435-9)"
           id="g4431">
          <g
             clip-path="url(#clipPath4441-2)"
             id="g4437">
            <path
               inkscape:connector-curvature="0"
               id="path4443"
               style="fill:#ffffff;fill-opacity:1;fill-rule:nonzero;stroke:none"
               d="m 274.078,1806.62 h 2498.34 v 1509.3 H 274.078 Z" />
          </g>
        </g>
      </g>
    </g>
  </g>
  <path
     style="fill:#5A96FF;fill-opacity:0;stroke-width:0.08761682"
     d="m 73.663825,61.190309 c 0.182345,-0.326985 0.666671,-1.193818 1.076279,-1.926296 l 0.744743,-1.331778 2.307243,-0.0013 c 1.268984,-7.01e-4 2.294101,0.03091 2.278038,0.07025 -0.01606,0.03934 -0.499377,0.906747 -1.07403,1.92757 l -1.044823,1.856041 h -2.309494 -2.309493 z"
     id="path4491"
     inkscape:connector-curvature="0" />
  <path
     style="fill:#5A96FF;fill-opacity:0;stroke-width:0.08761682"
     d="m 73.663825,61.190309 c 0.182345,-0.326985 0.666671,-1.193818 1.076279,-1.926296 l 0.744743,-1.331778 2.307243,-0.0013 c 1.268984,-7.01e-4 2.294101,0.03091 2.278038,0.07025 -0.01606,0.03934 -0.499377,0.906747 -1.07403,1.92757 l -1.044823,1.856041 h -2.309494 -2.309493 z"
     id="path4493"
     inkscape:connector-curvature="0" />
  <path
     style="fill:#5A96FF;fill-opacity:0;stroke-width:0.08761682"
     d="m 72.37445,59.769639 v -7.18458 h 7.403622 7.403621 v 7.18458 7.184579 H 79.778072 72.37445 Z m 9.837803,2.070287 c 0.397343,-0.169306 0.648203,-0.472915 0.771292,-0.933471 0.202371,-0.757205 -0.0782,-1.600983 -0.626671,-1.884607 -0.353179,-0.182636 -0.991741,-0.183761 -1.268785,-0.0022 l -0.214807,0.140746 V 58.5 57.839606 l -2.728255,0.02315 -2.728256,0.02315 -1.081701,1.92757 c -0.594935,1.060163 -1.082319,1.957774 -1.083076,1.994691 -7.54e-4,0.03692 1.072367,0.05663 2.384719,0.04381 l 2.386095,-0.02331 1.052866,-1.871992 1.052865,-1.871992 0.02361,1.893896 0.02361,1.893896 h 0.30495 c 0.257436,0 0.305159,-0.03072 0.306292,-0.197138 9.48e-4,-0.139347 0.02278,-0.16333 0.07447,-0.08181 0.07948,0.125334 0.66121,0.356526 0.912691,0.362721 0.08588,0.0021 0.283016,-0.05022 0.438084,-0.116288 z m 2.871617,0.03258 c 0.367612,-0.102123 0.721944,-0.456298 0.854709,-0.85433 l 0.09498,-0.284754 h -0.389718 c -0.288004,0 -0.389718,0.0343 -0.389718,0.131425 0,0.214413 -0.331951,0.481892 -0.598045,0.481892 -0.152858,0 -0.328843,-0.0865 -0.459988,-0.226101 -0.176129,-0.18748 -0.212411,-0.315987 -0.212411,-0.752329 0,-0.467948 0.02723,-0.549647 0.245832,-0.737684 0.135208,-0.116301 0.33343,-0.211456 0.440494,-0.211456 0.244613,0 0.584118,0.232052 0.584118,0.399244 0,0.09117 0.108318,0.126457 0.388159,0.126457 h 0.38816 l -0.07782,-0.271342 c -0.154989,-0.540417 -0.561859,-0.792576 -1.278853,-0.792576 -0.61754,0 -0.983457,0.210532 -1.237695,0.712116 -0.459437,0.906421 -0.08067,2.025255 0.766647,2.264572 0.407757,0.115167 0.513663,0.116954 0.881149,0.01487 z"
     id="path4495"
     inkscape:connector-curvature="0" />
  <path
     style="fill:#5A96FF;fill-opacity:0;stroke-width:0.08761682"
     d="m 72.37445,59.769639 v -7.18458 h 7.403622 7.403621 v 7.18458 7.184579 H 79.778072 72.37445 Z m 9.837803,2.070287 c 0.397343,-0.169306 0.648203,-0.472915 0.771292,-0.933471 0.202371,-0.757205 -0.0782,-1.600983 -0.626671,-1.884607 -0.353179,-0.182636 -0.991741,-0.183761 -1.268785,-0.0022 l -0.214807,0.140746 V 58.5 57.839606 l -2.728255,0.02315 -2.728256,0.02315 -1.081701,1.92757 c -0.594935,1.060163 -1.082319,1.957774 -1.083076,1.994691 -7.54e-4,0.03692 1.072367,0.05663 2.384719,0.04381 l 2.386095,-0.02331 1.052866,-1.871992 1.052865,-1.871992 0.02361,1.893896 0.02361,1.893896 h 0.30495 c 0.257436,0 0.305159,-0.03072 0.306292,-0.197138 9.48e-4,-0.139347 0.02278,-0.16333 0.07447,-0.08181 0.07948,0.125334 0.66121,0.356526 0.912691,0.362721 0.08588,0.0021 0.283016,-0.05022 0.438084,-0.116288 z m 2.871617,0.03258 c 0.367612,-0.102123 0.721944,-0.456298 0.854709,-0.85433 l 0.09498,-0.284754 h -0.389718 c -0.288004,0 -0.389718,0.0343 -0.389718,0.131425 0,0.214413 -0.331951,0.481892 -0.598045,0.481892 -0.152858,0 -0.328843,-0.0865 -0.459988,-0.226101 -0.176129,-0.18748 -0.212411,-0.315987 -0.212411,-0.752329 0,-0.467948 0.02723,-0.549647 0.245832,-0.737684 0.135208,-0.116301 0.33343,-0.211456 0.440494,-0.211456 0.244613,0 0.584118,0.232052 0.584118,0.399244 0,0.09117 0.108318,0.126457 0.388159,0.126457 h 0.38816 l -0.07782,-0.271342 c -0.154989,-0.540417 -0.561859,-0.792576 -1.278853,-0.792576 -0.61754,0 -0.983457,0.210532 -1.237695,0.712116 -0.459437,0.906421 -0.08067,2.025255 0.766647,2.264572 0.407757,0.115167 0.513663,0.116954 0.881149,0.01487 z"
     id="path4497"
     inkscape:connector-curvature="0" />
  <path
     id="social_itunes"
     d="m 109.8965,53.468348 c -6.4e-4,-0.575728 -0.0491,-1.147472 -0.18199,-1.709255 -0.24009,-1.019976 -0.80482,-1.801558 -1.65287,-2.372637 -0.43499,-0.292845 -0.91259,-0.473466 -1.42246,-0.567761 -0.3924,-0.07238 -0.78802,-0.105583 -1.18624,-0.117536 -0.031,-0.0013 -0.0632,-0.006 -0.0942,-0.0094 h -9.115602 c -0.114881,0.0066 -0.229761,0.01328 -0.344643,0.01992 -0.56666,0.0332 -1.129447,0.09696 -1.661901,0.31343 -1.014566,0.413037 -1.745157,1.132863 -2.173701,2.167448 -0.145215,0.350616 -0.221373,0.722482 -0.27494,1.098997 -0.04324,0.305461 -0.06776,0.61225 -0.07616,0.921032 -6.45e-4,0.02391 -0.0058,0.04781 -0.0078,0.07171 v 9.535042 c 0.0064,0.110231 0.01225,0.220463 0.01936,0.330695 0.03808,0.635493 0.116818,1.267001 0.376913,1.850697 0.493085,1.10763 1.317259,1.835425 2.451869,2.185377 0.319472,0.09894 0.648625,0.146091 0.98036,0.177964 0.420155,0.04117 0.8416,0.04782 1.263045,0.04782 2.787472,0 5.57495,0 8.36242,-0.0013 0.39821,0 0.79449,-0.02589 1.19011,-0.07703 0.62411,-0.08234 1.21077,-0.273587 1.74065,-0.632172 0.63765,-0.431631 1.11589,-1.004038 1.42504,-1.722537 0.14134,-0.328703 0.22201,-0.677992 0.2801,-1.032592 0.0865,-0.526589 0.1052,-1.059154 0.10453,-1.59172 -0.001,-2.96231 6.5e-4,-5.923957 -0.002,-8.886268 m -4.86952,3.112385 c 0,1.485472 6.4e-4,2.970943 -6.6e-4,4.455751 0,0.325384 -0.0433,0.644789 -0.18393,0.940954 -0.21879,0.460849 -0.57699,0.750373 -1.052,0.889158 -0.26462,0.07769 -0.53504,0.122185 -0.81062,0.134802 -0.72156,0.03519 -1.34501,-0.468152 -1.4741,-1.19794 -0.10712,-0.60229 0.17297,-1.266337 0.78804,-1.576446 0.24525,-0.124841 0.50728,-0.194566 0.77189,-0.253002 0.28656,-0.06374 0.57441,-0.119528 0.85967,-0.187261 0.20782,-0.04914 0.34658,-0.179957 0.38724,-0.402411 0.009,-0.04914 0.0135,-0.100268 0.0135,-0.150739 6.5e-4,-1.415747 6.5e-4,-2.830831 -6.4e-4,-4.245913 0,-0.04848 -0.007,-0.09762 -0.0193,-0.144099 -0.0297,-0.117535 -0.11295,-0.189253 -0.2304,-0.182612 -0.12134,0.0073 -0.24074,0.02723 -0.36014,0.0518 -0.57634,0.116873 -1.15203,0.237066 -1.72773,0.356593 -0.58794,0.121542 -1.17589,0.244391 -1.7645,0.366575 -0.347214,0.07238 -0.694445,0.144098 -1.041666,0.216479 -0.01229,0.0028 -0.02448,0.0066 -0.03614,0.0099 -0.209751,0.05976 -0.285908,0.158707 -0.295595,0.381826 -0.0011,0.03386 -6.41e-4,0.06774 -6.41e-4,0.102264 -6.51e-4,2.029326 0,4.059315 -0.0011,6.087977 0,0.328039 -0.03551,0.652093 -0.163283,0.956891 -0.211051,0.50069 -0.584092,0.812129 -1.087502,0.962867 -0.265905,0.07902 -0.538907,0.124177 -0.815139,0.134137 -0.726718,0.02789 -1.330166,-0.468817 -1.454727,-1.20458 -0.107783,-0.634164 0.174257,-1.314811 0.873869,-1.619609 0.270422,-0.116872 0.554397,-0.181285 0.839663,-0.242377 0.217499,-0.04714 0.435644,-0.08965 0.652498,-0.137458 0.289784,-0.06508 0.441453,-0.252337 0.453715,-0.557134 0.0013,-0.03985 6.46e-4,-0.07769 6.46e-4,-0.117537 0,-2.308889 0,-4.618442 0.0013,-6.927332 0,-0.09628 0.0098,-0.195229 0.03162,-0.28886 0.05292,-0.222456 0.207172,-0.349288 0.4137,-0.404404 0.193624,-0.0518 0.390463,-0.08765 0.586671,-0.128826 0.55568,-0.115543 1.111371,-0.230424 1.667061,-0.345303 0.5744,-0.119529 1.14816,-0.238393 1.72257,-0.357921 0.50728,-0.105584 1.01457,-0.212495 1.52314,-0.315422 0.16651,-0.03386 0.33561,-0.0684 0.50341,-0.08234 0.23492,-0.01926 0.39627,0.13281 0.42015,0.37585 0.005,0.05777 0.009,0.116208 0.009,0.174644 0.001,1.490785 0.001,2.980905 6.4e-4,4.471025 z"
     inkscape:connector-curvature="0"
     style="stroke-width:0.65465605;fill:#5A96FF;stroke:none;"
     inkscape:label="#social-itunes" />
</svg>
