<?xml version="1.0" standalone="no"?>
<!DOCTYPE svg PUBLIC "-//W3C//DTD SVG 20010904//EN"
 "http://www.w3.org/TR/2001/REC-SVG-20010904/DTD/svg10.dtd">
<svg version="1.0" xmlns="http://www.w3.org/2000/svg"
 width="632.000000pt" height="631.000000pt" viewBox="0 0 632.000000 631.000000"
 preserveAspectRatio="xMidYMid meet">
<g transform="translate(0.000000,631.000000) scale(0.100000,-0.100000)"
fill="#761ed6" stroke="none">
<path d="M2910 6300 c-963 -83 -1827 -582 -2362 -1365 -288 -420 -453 -862
-525 -1401 -23 -179 -23 -589 1 -769 95 -723 407 -1353 918 -1851 244 -239
475 -404 780 -559 324 -165 659 -269 1028 -320 182 -25 564 -30 750 -11 712
76 1353 376 1864 875 537 525 848 1174 938 1956 18 163 15 551 -6 710 -122
910 -607 1691 -1371 2205 -413 278 -879 452 -1375 515 -151 19 -496 27 -640
15z m511 -200 c507 -49 961 -210 1374 -485 193 -129 286 -205 461 -380 248
-246 408 -466 558 -765 140 -280 229 -560 277 -871 30 -191 33 -605 5 -798
-81 -579 -282 -1056 -627 -1492 -97 -123 -329 -356 -449 -453 -220 -176 -558
-370 -800 -459 -357 -132 -662 -187 -1036 -187 -232 0 -350 10 -554 46 -1404
252 -2430 1471 -2430 2888 0 934 416 1786 1146 2348 440 338 994 555 1549 607
130 12 406 13 526 1z"/>
<path d="M4912 4752 c-10 -7 -12 -103 -10 -448 l3 -439 70 -3 c38 -2 80 0 92
3 l23 5 0 433 c0 323 -3 436 -12 445 -14 14 -146 16 -166 4z"/>
<path d="M5272 4752 c-10 -7 -12 -103 -10 -448 l3 -439 70 -3 c38 -2 80 0 92
3 l23 5 0 433 c0 323 -3 436 -12 445 -14 14 -146 16 -166 4z"/>
<path d="M1617 4704 c-4 -4 -7 -36 -7 -70 0 -75 5 -78 111 -71 l64 5 0 68 0
69 -80 3 c-45 1 -84 0 -88 -4z"/>
<path d="M4547 4703 c-4 -3 -7 -35 -7 -69 0 -60 1 -64 26 -70 15 -4 56 -3 93
2 l66 9 3 59 c2 41 -1 62 -10 67 -15 10 -162 12 -171 2z"/>
<path d="M840 4286 c0 -470 -10 -426 95 -426 101 0 95 -12 95 181 l0 169 180
0 180 0 0 80 0 80 -180 0 -180 0 0 85 0 85 225 0 225 0 0 80 0 80 -320 0 -320
0 0 -414z"/>
<path d="M3720 4280 l0 -420 95 0 95 0 0 110 c0 80 4 119 15 140 9 17 19 30
24 30 5 0 26 -21 47 -47 21 -27 63 -75 94 -108 31 -33 63 -69 71 -81 23 -34
54 -44 136 -44 85 0 114 10 98 34 -15 20 -168 208 -247 302 -37 45 -68 87 -68
94 0 7 31 47 68 89 38 42 89 104 115 138 26 34 53 66 60 70 17 11 87 95 87
105 0 12 -208 10 -230 -2 -11 -6 -39 -38 -62 -73 -23 -34 -65 -87 -93 -117
-28 -30 -63 -72 -78 -92 -16 -21 -32 -38 -38 -38 -6 0 -7 49 -3 139 4 76 4
150 0 165 -6 26 -8 26 -96 26 l-90 0 0 -420z"/>
<path d="M1900 4510 c0 -5 30 -79 66 -163 37 -83 85 -199 109 -257 23 -58 55
-132 71 -165 l29 -60 95 -3 c52 -1 100 1 106 5 7 5 46 87 87 183 42 96 105
241 140 323 l65 147 -93 0 c-62 0 -96 -4 -102 -12 -13 -16 -151 -329 -171
-387 -14 -40 -16 -43 -28 -26 -7 10 -34 68 -60 129 -25 61 -63 152 -84 201
l-38 90 -96 3 c-62 2 -96 -1 -96 -8z"/>
<path d="M2838 4506 c-87 -24 -150 -88 -188 -193 -19 -52 -22 -77 -18 -156 3
-85 7 -98 37 -145 60 -94 129 -137 251 -154 154 -23 300 21 364 109 20 26 36
58 36 71 0 21 -3 22 -91 22 -82 0 -94 -2 -121 -25 -36 -31 -100 -48 -141 -39
-75 16 -147 72 -147 115 0 18 13 19 245 19 243 0 245 0 259 23 11 17 12 38 5
95 -14 128 -78 211 -197 254 -57 21 -223 23 -294 4z m252 -151 c34 -18 57 -45
65 -77 l7 -28 -166 0 c-91 0 -166 2 -166 5 0 4 6 18 14 33 21 40 60 73 98 82
40 10 114 3 148 -15z"/>
<path d="M1615 4497 c-3 -7 -4 -152 -3 -322 l3 -310 85 0 85 0 3 323 2 322
-85 0 c-60 0 -87 -4 -90 -13z"/>
<path d="M4546 4495 c-3 -9 -6 -150 -6 -314 0 -218 3 -300 12 -309 14 -14 146
-16 166 -4 9 7 12 78 10 323 l-3 314 -86 3 c-72 2 -88 0 -93 -13z"/>
<path d="M4050 3810 c-12 -12 -19 -28 -16 -37 36 -93 31 -187 -13 -278 -37
-75 -140 -177 -257 -254 -137 -91 -569 -298 -1209 -580 -569 -250 -924 -504
-1133 -809 -123 -180 -183 -347 -203 -572 -19 -206 -2 -225 229 -242 74 -5
145 -7 159 -4 38 10 47 44 34 131 -45 304 42 566 263 794 187 192 351 295 795
497 200 92 315 151 596 307 358 198 583 354 736 509 195 195 321 468 248 534
-17 15 -40 20 -114 22 -85 4 -95 2 -115 -18z"/>
<path d="M4511 3761 c-19 -27 -20 -34 -10 -82 26 -122 -15 -248 -115 -356
-136 -147 -309 -249 -1012 -601 -209 -105 -421 -214 -470 -243 -234 -138 -394
-260 -545 -416 -251 -261 -376 -552 -382 -888 -2 -97 0 -105 22 -129 34 -36
75 -45 230 -53 l134 -6 -9 119 c-23 312 15 493 149 697 148 225 341 376 764
596 252 130 447 245 698 409 379 248 573 436 688 668 38 76 77 192 77 231 0
58 -42 83 -141 83 -52 0 -60 -3 -78 -29z"/>
<path d="M5347 3688 c-7 -124 -33 -223 -92 -343 -93 -191 -198 -323 -532 -667
-319 -328 -437 -478 -528 -670 -63 -135 -79 -201 -79 -343 -1 -140 15 -209 74
-330 50 -104 146 -233 209 -284 87 -68 145 -85 296 -85 72 0 151 3 176 7 44 7
47 10 57 47 l9 38 -55 39 c-78 53 -230 206 -281 282 -91 134 -131 257 -131
407 0 118 26 220 89 351 73 149 82 162 552 786 342 454 356 482 360 713 3 145
-2 154 -76 154 l-42 0 -6 -102z"/>
<path d="M4869 3712 c-101 -409 -450 -777 -1042 -1097 -413 -223 -791 -436
-862 -485 -159 -110 -303 -281 -369 -438 -53 -126 -70 -222 -70 -402 -1 -185
8 -273 30 -295 23 -23 505 -22 528 1 20 20 21 20 -9 110 -70 214 -43 429 77
614 57 88 199 227 403 395 252 206 781 681 1018 915 283 278 344 372 355 546
4 77 -15 185 -36 198 -4 2 -14 -26 -23 -62z"/>
<path d="M5142 3732 c-7 -5 -48 -85 -91 -178 -146 -313 -187 -371 -420 -604
-201 -200 -383 -362 -762 -677 -337 -280 -444 -396 -539 -583 -70 -138 -85
-205 -85 -370 1 -228 32 -300 146 -335 44 -14 111 -18 375 -22 337 -6 364 -3
364 37 0 11 -15 43 -34 72 -107 168 -156 314 -163 484 -8 189 32 344 136 527
99 172 184 267 577 647 232 225 307 342 488 768 48 111 86 205 86 211 0 23
-53 38 -78 23z"/>
</g>
</svg>
